<svg width="1921" height="800" viewBox="0 0 1921 800" fill="none" xmlns="http://www.w3.org/2000/svg">
<g clip-path="url(#clip0_3500_54972)">
<rect width="1921" height="800" fill="#FFFAEC"/>
<path d="M0.751088 597.068L0 596.631V597.5V800.5V800.997L0.496495 801L1926 814.5L1926.5 814.503V814V470V469.656L1926.18 469.533C1624.1 353.502 1451.47 364.478 1309.95 417.782C1249.54 440.536 1194.81 471.001 1138.13 502.55C1128.44 507.939 1118.7 513.361 1108.87 518.781C1041.45 555.933 969.554 593.037 880.857 619.521C792.44 645.921 635.857 677.164 469.64 683.372C303.407 689.58 127.627 670.745 0.751088 597.068Z" fill="url(#paint0_linear_3500_54972)" stroke="#FFD8BC"/>
<path d="M-18.2429 645.003L-19 644.55V645.432V848.496V848.993L-18.5035 848.996L1924 862.5L1924.5 862.504V862V517.892V517.565L1924.2 517.434C1672.09 407.44 1507.96 420.957 1363.07 474.009C1303.07 495.977 1246.38 524.722 1188.13 554.257C1176.07 560.372 1163.94 566.521 1151.71 572.651C1080.36 608.39 1005.25 643.486 917.775 667.457C830.73 691.311 658.204 722.565 476.679 729.414C295.13 736.264 104.699 718.696 -18.2429 645.003Z" fill="url(#paint1_linear_3500_54972)" stroke="#FFD8BC"/>
<path d="M0.257063 614.996L-0.5 614.542V615.425V818.488V818.985L-0.00339204 818.988L1990.5 832.492L1991 832.496V831.992V487.885V487.538L1990.68 487.416C1782.33 409.44 1652.58 418.952 1542.06 462.011C1486.82 483.532 1436.4 513.426 1383.41 544.915L1382.47 545.475C1329.75 576.8 1274.44 609.67 1209.21 637.472C1069.37 697.078 828.642 728.338 592.066 726.243C473.788 725.196 356.57 715.811 253.547 697.471C150.515 679.129 61.7186 651.837 0.257063 614.996Z" fill="url(#paint2_linear_3500_54972)" stroke="#FFD8BC"/>
</g>
<defs>
<linearGradient id="paint0_linear_3500_54972" x1="1589" y1="162.001" x2="277.001" y2="1088" gradientUnits="userSpaceOnUse">
<stop stop-color="#FFFAEC"/>
<stop offset="1" stop-color="#FFCBA5" stop-opacity="0.5"/>
</linearGradient>
<linearGradient id="paint1_linear_3500_54972" x1="966.999" y1="524" x2="1642.03" y2="824.167" gradientUnits="userSpaceOnUse">
<stop stop-color="#FFFAEC" stop-opacity="0.25"/>
<stop offset="1" stop-color="#FFCBA5" stop-opacity="0.5"/>
</linearGradient>
<linearGradient id="paint2_linear_3500_54972" x1="772.5" y1="497.993" x2="2000.9" y2="802.699" gradientUnits="userSpaceOnUse">
<stop stop-color="#FFB179" stop-opacity="0.25"/>
<stop offset="1" stop-color="#FFF2E9"/>
</linearGradient>
<clipPath id="clip0_3500_54972">
<rect width="1921" height="800" fill="white"/>
</clipPath>
</defs>
</svg>
