<svg viewBox="0 0 90 90" fill="none" xmlns="http://www.w3.org/2000/svg"><g id="thumbnail-lead-to-meeting"><g id="Group 98997"><g id="Shape"><path id="Rectangle 3594" d="M4.31995 14.1857C4.31995 11.9331 6.14608 10.1069 8.39872 10.1069H74.6501C76.9028 10.1069 78.7289 11.9331 78.7289 14.1857V73.7736C78.7289 76.0263 76.9028 77.8524 74.6501 77.8524H8.39872C6.14608 77.8524 4.31995 76.0263 4.31995 73.7736V14.1857Z" fill="#FFF5D9"/><g id="Group 5653"><path id="Rectangle 3538" d="M4.31995 14.1857C4.31995 11.9331 6.14608 10.1069 8.39872 10.1069H74.6501C76.9028 10.1069 78.7289 11.9331 78.7289 14.1857V21.5275H4.31995V14.1857Z" fill="#161100"/></g><path id="Rectangle 3601" d="M9.6897 33.0828C9.6897 30.2789 11.9627 28.0059 14.7666 28.0059H20.7219C23.5258 28.0059 25.7989 30.2789 25.7989 33.0828V39.0381C25.7989 41.842 23.5258 44.115 20.7219 44.115H14.7666C11.9627 44.115 9.6897 41.842 9.6897 39.0381V33.0828Z" fill="#FF7D1F"/><path id="Rectangle 3602" d="M33.4698 33.0828C33.4698 30.2789 35.7429 28.0059 38.5468 28.0059H44.5021C47.306 28.0059 49.579 30.2789 49.579 33.0828V39.0381C49.579 41.842 47.306 44.115 44.5021 44.115H38.5468C35.7429 44.115 33.4698 41.842 33.4698 39.0381V33.0828Z" fill="#FF7D1F"/><path id="Rectangle 3604" d="M9.6897 57.6297C9.6897 54.8258 11.9627 52.5527 14.7666 52.5527H20.7219C23.5258 52.5527 25.7989 54.8258 25.7989 57.6297V63.585C25.7989 66.3889 23.5258 68.6619 20.7219 68.6619H14.7666C11.9627 68.6619 9.6897 66.3889 9.6897 63.585V57.6297Z" fill="#FF7D1F"/><path id="Rectangle 3605" d="M34.2369 57.6297C34.2369 54.8258 36.51 52.5527 39.3139 52.5527H45.2692C48.0731 52.5527 50.3461 54.8258 50.3461 57.6297V63.585C50.3461 66.3889 48.0731 68.6619 45.2692 68.6619H39.3139C36.51 68.6619 34.2369 66.3889 34.2369 63.585V57.6297Z" fill="#FF7D1F"/><path id="Rectangle 3603" d="M57.25 33.0828C57.25 30.2789 59.523 28.0059 62.3269 28.0059H68.2822C71.0861 28.0059 73.3592 30.2789 73.3592 33.0828V39.0381C73.3592 41.842 71.0861 44.115 68.2822 44.115H62.3269C59.523 44.115 57.25 41.842 57.25 39.0381V33.0828Z" fill="#FF7D1F"/></g><g id="Group 5702"><g id="Shape_2"><path id="Ellipse 262" d="M68.997 17.6797C68.997 18.7769 68.1075 19.6664 67.0102 19.6664C65.913 19.6664 65.0234 18.7769 65.0234 17.6797C65.0234 16.5824 65.913 15.6929 67.0102 15.6929C68.1075 15.6929 68.997 16.5824 68.997 17.6797Z" fill="#FF7D1F"/><path id="Vector 159 (Stroke)" fill-rule="evenodd" clip-rule="evenodd" d="M67.0161 6.65654C67.0574 6.66353 67.317 6.73648 67.6137 7.43441C67.9046 8.11883 68.101 9.14982 68.101 10.395H69.8931C69.8931 8.99113 69.6757 7.70438 69.263 6.7334C68.8798 5.83202 68.1637 4.86349 67.0101 4.86377C66.2986 4.86394 65.7739 5.27552 65.4283 5.72922C65.0868 6.17751 64.8414 6.7594 64.6611 7.36814C64.2973 8.59582 64.1274 10.1785 64.1274 11.7204C64.1274 13.2624 64.2973 14.845 64.661 16.0726C64.8414 16.6813 65.0868 17.2631 65.4283 17.7114C65.774 18.1651 66.2988 18.5766 67.0102 18.5766C67.5051 18.5766 67.9063 18.1754 67.9063 17.6805C67.9063 17.1881 67.509 16.7884 67.0175 16.7845C66.996 16.775 66.9409 16.7397 66.8538 16.6253C66.6986 16.4217 66.53 16.0723 66.3793 15.5634C66.0808 14.556 65.9195 13.1586 65.9195 11.7204C65.9195 10.2823 66.0808 8.88476 66.3793 7.87724C66.5301 7.36839 66.6986 7.01891 66.8538 6.8152C66.939 6.70344 66.9935 6.66703 67.0161 6.65654ZM67.0278 16.7874C67.0278 16.7879 67.0247 16.7876 67.0184 16.7849C67.0247 16.7856 67.0279 16.7869 67.0278 16.7874ZM67.0186 6.65544C67.0249 6.65277 67.028 6.65244 67.0281 6.65294C67.0281 6.65343 67.0249 6.65477 67.0186 6.65544Z" fill="#FF7D1F"/></g><g id="Shape_3"><path id="Ellipse 262_2" d="M51.7781 17.6797C51.7781 18.7769 50.8886 19.6664 49.7914 19.6664C48.6941 19.6664 47.8046 18.7769 47.8046 17.6797C47.8046 16.5824 48.6941 15.6929 49.7914 15.6929C50.8886 15.6929 51.7781 16.5824 51.7781 17.6797Z" fill="#FF7D1F"/><path id="Vector 159 (Stroke)_2" fill-rule="evenodd" clip-rule="evenodd" d="M49.7973 6.65654C49.8386 6.66353 50.0982 6.73648 50.3948 7.43441C50.6857 8.11883 50.8821 9.14982 50.8821 10.395H52.6742C52.6742 8.99113 52.4568 7.70438 52.0441 6.7334C51.661 5.83202 50.9448 4.86349 49.7912 4.86377C49.0797 4.86394 48.555 5.27552 48.2094 5.72922C47.8679 6.17751 47.6226 6.7594 47.4422 7.36814C47.0784 8.59582 46.9086 10.1785 46.9086 11.7204C46.9086 13.2624 47.0784 14.845 47.4422 16.0726C47.6225 16.6813 47.8679 17.2631 48.2094 17.7114C48.5551 18.1651 49.0799 18.5766 49.7914 18.5766C50.2862 18.5766 50.6874 18.1754 50.6874 17.6805C50.6874 17.1881 50.2902 16.7884 49.7986 16.7845C49.7771 16.775 49.722 16.7397 49.6349 16.6253C49.4797 16.4217 49.3112 16.0723 49.1604 15.5634C48.8619 14.556 48.7006 13.1586 48.7006 11.7204C48.7006 10.2823 48.8619 8.88476 49.1604 7.87724C49.3112 7.36839 49.4798 7.01891 49.635 6.8152C49.7201 6.70344 49.7747 6.66703 49.7973 6.65654ZM49.809 16.7874C49.809 16.7879 49.8058 16.7876 49.7995 16.7849C49.8058 16.7856 49.809 16.7869 49.809 16.7874ZM49.7997 6.65544C49.806 6.65277 49.8092 6.65244 49.8092 6.65294C49.8092 6.65343 49.8061 6.65477 49.7997 6.65544Z" fill="#FF7D1F"/></g><g id="Shape_4"><path id="Ellipse 262_3" d="M34.5594 17.6797C34.5594 18.7769 33.6699 19.6664 32.5726 19.6664C31.4753 19.6664 30.5858 18.7769 30.5858 17.6797C30.5858 16.5824 31.4753 15.6929 32.5726 15.6929C33.6699 15.6929 34.5594 16.5824 34.5594 17.6797Z" fill="#FF7D1F"/><path id="Vector 159 (Stroke)_3" fill-rule="evenodd" clip-rule="evenodd" d="M32.5784 6.65654C32.6197 6.66353 32.8793 6.73648 33.1759 7.43441C33.4668 8.11883 33.6633 9.14982 33.6633 10.395H35.4553C35.4553 8.99113 35.2379 7.70438 34.8252 6.7334C34.4421 5.83202 33.7259 4.86349 32.5723 4.86377C31.8609 4.86394 31.3362 5.27552 30.9905 5.72922C30.649 6.17751 30.4037 6.7594 30.2233 7.36814C29.8596 8.59582 29.6897 10.1785 29.6897 11.7204C29.6897 13.2624 29.8596 14.845 30.2233 16.0726C30.4037 16.6813 30.649 17.2631 30.9906 17.7114C31.3362 18.1651 31.861 18.5766 32.5725 18.5766C33.0674 18.5766 33.4685 18.1754 33.4685 17.6805C33.4685 17.1881 33.0713 16.7884 32.5798 16.7845C32.5582 16.775 32.5032 16.7397 32.416 16.6253C32.2609 16.4217 32.0923 16.0723 31.9415 15.5634C31.643 14.556 31.4818 13.1586 31.4818 11.7204C31.4818 10.2823 31.643 8.88476 31.9416 7.87724C32.0923 7.36839 32.2609 7.01891 32.4161 6.8152C32.5012 6.70344 32.5558 6.66703 32.5784 6.65654ZM32.5901 16.7874C32.5901 16.7879 32.5869 16.7876 32.5806 16.7849C32.587 16.7856 32.5901 16.7869 32.5901 16.7874ZM32.5809 6.65544C32.5871 6.65277 32.5903 6.65244 32.5903 6.65294C32.5903 6.65343 32.5872 6.65477 32.5809 6.65544Z" fill="#FF7D1F"/></g><g id="Shape_5"><path id="Ellipse 262_4" d="M17.3405 17.6797C17.3405 18.7769 16.451 19.6664 15.3537 19.6664C14.2565 19.6664 13.3669 18.7769 13.3669 17.6797C13.3669 16.5824 14.2565 15.6929 15.3537 15.6929C16.451 15.6929 17.3405 16.5824 17.3405 17.6797Z" fill="#FF7D1F"/><path id="Vector 159 (Stroke)_4" fill-rule="evenodd" clip-rule="evenodd" d="M15.3596 6.65654C15.401 6.66353 15.6605 6.73648 15.9572 7.43441C16.2481 8.11883 16.4445 9.14982 16.4445 10.395H18.2366C18.2366 8.99113 18.0192 7.70438 17.6065 6.7334C17.2233 5.83202 16.5072 4.86349 15.3536 4.86377C14.6421 4.86394 14.1174 5.27552 13.7718 5.72922C13.4303 6.17751 13.1849 6.7594 13.0046 7.36814C12.6408 8.59582 12.471 10.1785 12.4709 11.7204C12.4709 13.2624 12.6408 14.845 13.0046 16.0726C13.1849 16.6813 13.4303 17.2631 13.7718 17.7114C14.1175 18.1651 14.6423 18.5766 15.3538 18.5766C15.8486 18.5766 16.2498 18.1754 16.2498 17.6805C16.2498 17.1881 15.8525 16.7884 15.361 16.7845C15.3395 16.775 15.2844 16.7397 15.1973 16.6253C15.0421 16.4217 14.8736 16.0723 14.7228 15.5634C14.4243 14.556 14.263 13.1586 14.263 11.7204C14.263 10.2823 14.4243 8.88476 14.7228 7.87724C14.8736 7.36839 15.0422 7.01891 15.1973 6.8152C15.2825 6.70344 15.337 6.66703 15.3596 6.65654ZM15.3713 16.7874C15.3713 16.7879 15.3682 16.7876 15.3619 16.7849C15.3682 16.7856 15.3714 16.7869 15.3713 16.7874ZM15.3621 6.65544C15.3684 6.65277 15.3716 6.65244 15.3716 6.65294C15.3716 6.65343 15.3684 6.65477 15.3621 6.65544Z" fill="#FF7D1F"/></g></g><path id="Ellipse 264" d="M86.3999 69.0459C86.3999 77.7309 79.3594 84.7715 70.6743 84.7715C61.9893 84.7715 54.9487 77.7309 54.9487 69.0459C54.9487 60.3609 61.9893 53.3203 70.6743 53.3203C79.3594 53.3203 86.3999 60.3609 86.3999 69.0459Z" fill="#161100"/><path id="Vector 160 (Stroke)" fill-rule="evenodd" clip-rule="evenodd" d="M77.6614 65.5492C78.1098 65.9996 78.1082 66.7281 77.6579 67.1765L69.1418 75.6559L64.8763 71.4088C64.4259 70.9604 64.4244 70.2318 64.8727 69.7815C65.3211 69.3312 66.0497 69.3296 66.5 69.778L69.1418 72.4084L76.0341 65.5457C76.4844 65.0973 77.213 65.0989 77.6614 65.5492Z" fill="#FECF40"/></g></g></svg>