<svg width="535" height="128" viewBox="0 0 535 128" fill="none" xmlns="http://www.w3.org/2000/svg">
<path fill-rule="evenodd" clip-rule="evenodd" d="M344.213 42.9042C345.619 44.3107 347.668 45.014 350.359 45.014C353.019 45.014 355.052 44.3107 356.459 42.9042C357.865 41.467 358.569 39.3725 358.569 36.6206C358.569 33.9298 357.865 31.8964 356.459 30.5204C355.052 29.1139 353.019 28.4106 350.359 28.4106C347.668 28.4106 345.619 29.1139 344.213 30.5204C342.806 31.8964 342.103 33.9298 342.103 36.6206C342.103 39.3725 342.806 41.467 344.213 42.9042ZM350.359 49.6006C348.004 49.6006 345.68 49.2642 343.387 48.5915V95.6956H357.284V48.5915C355.052 49.2642 352.744 49.6006 350.359 49.6006ZM159.149 46.1929C159.149 43.5628 161.121 41.7781 164.033 41.7781C165.067 41.7781 166.476 42.0599 168.072 42.5295V29.5668C166.757 29.3789 165.348 29.285 163.939 29.285C158.209 29.285 153.419 30.8818 149.755 33.9816C145.998 37.1753 144.12 41.2145 144.12 46.1929V49.0109H137.732V61.4101H144.12V95.6956H159.149V61.4101H168.072V49.0109H159.149V46.1929ZM173.5 29.3738V95.6956H187.398V29.3738H173.5ZM216.385 97.1175C211.309 97.1175 206.998 96.1237 203.451 94.1362C199.904 92.1487 197.213 89.2897 195.378 85.5593C193.544 81.8289 192.626 77.3646 192.626 72.1665C192.626 66.8767 193.544 62.3665 195.378 58.6361C197.244 54.8751 199.965 52.0161 203.542 50.0592C207.151 48.1023 211.523 47.1238 216.66 47.1238C221.552 47.1238 225.726 48.1023 229.181 50.0592C232.667 52.0161 235.312 54.8751 237.116 58.6361C238.951 62.3665 239.868 66.8614 239.868 72.1206C239.868 77.3799 238.951 81.8747 237.116 85.6052C235.282 89.3356 232.606 92.1945 229.09 94.1821C225.573 96.139 221.338 97.1175 216.385 97.1175ZM216.293 82.5322C219.626 82.5322 222.21 81.6148 224.044 79.7802C225.879 77.915 226.796 75.3465 226.796 72.0748C226.796 68.8336 225.879 66.2957 224.044 64.4611C222.24 62.6264 219.657 61.7091 216.293 61.7091C212.899 61.7091 210.285 62.6264 208.45 64.4611C206.615 66.2957 205.698 68.8336 205.698 72.0748C205.698 75.3159 206.631 77.8691 208.496 79.7343C210.361 81.5996 212.96 82.5322 216.293 82.5322ZM266.103 81.89C260.966 81.89 258.398 78.8476 258.398 72.7628V48.5915H244.501V77.2576C244.501 83.4953 245.647 88.3724 247.94 91.8888C250.234 95.3746 254.041 97.1175 259.361 97.1175C262.572 97.1175 265.324 96.4142 267.617 95.0076C269.941 93.6011 271.913 91.3384 273.534 88.2195C275.154 85.0701 276.469 80.9116 277.478 75.744H278.028L275.873 95.6956H290.045V48.5915H276.148V69.3228C276.148 71.8607 275.72 74.0776 274.864 75.9734C274.007 77.8691 272.815 79.3368 271.286 80.3765C269.757 81.3855 268.03 81.89 266.103 81.89ZM297.154 48.5915H311.281L309.171 69.2311H309.767C311.021 61.8314 312.993 56.3122 315.684 52.6736C318.406 49.0043 322.105 47.1697 326.784 47.1697C329.566 47.1697 331.875 47.8271 333.709 49.1419C335.575 50.4261 336.935 52.169 337.791 54.3706C338.678 56.5721 339.122 59.0489 339.122 61.8008C339.122 65.8064 338.265 69.8579 336.553 73.9553L326.096 73.5883C326.738 71.6926 327.059 70.0108 327.059 68.5431C327.059 66.6167 326.508 65.1338 325.408 64.0941C324.337 63.0239 322.747 62.4888 320.638 62.4888C318.528 62.4888 316.754 63.1462 315.317 64.4611C313.88 65.7453 312.81 67.4118 312.107 69.4604C311.403 71.5091 311.052 73.6495 311.052 75.8816V95.6956H297.154V48.5915ZM381.96 72.6252C378.016 72.0442 374.79 71.3562 372.282 70.5612C369.775 69.7356 367.757 68.5125 366.228 66.8919C364.73 65.2714 363.981 63.0698 363.981 60.2873C363.981 57.6576 364.715 55.3643 366.182 53.4074C367.65 51.4199 369.836 49.8757 372.741 48.775C375.677 47.6742 379.239 47.1238 383.428 47.1238C387.189 47.1238 390.644 47.7353 393.794 48.9584C396.974 50.1509 399.542 52.0162 401.499 54.5541C403.456 57.092 404.434 60.2873 404.434 64.14C404.434 65.3937 404.327 66.6473 404.113 67.901L392.876 69.4146C392.968 68.803 393.014 68.2373 393.014 67.7175C393.014 65.3937 392.158 63.6202 390.445 62.3971C388.733 61.174 386.455 60.5625 383.611 60.5625C381.349 60.5625 379.606 60.9447 378.383 61.7091C377.19 62.443 376.594 63.4979 376.594 64.8738C376.594 66.3721 377.236 67.4882 378.52 68.222C379.804 68.9559 381.853 69.6286 384.666 70.2401L386.317 70.5153C390.843 71.2492 394.466 72.0901 397.188 73.0379C399.909 73.9553 401.988 75.1783 403.425 76.7072C404.862 78.2361 405.581 80.2389 405.581 82.7156C405.581 87.241 403.777 90.7574 400.169 93.2647C396.591 95.7721 391.424 97.0257 384.666 97.0257C380.691 97.0257 377.037 96.4142 373.704 95.1911C370.371 93.9374 367.696 92.0264 365.678 89.4579C363.69 86.8588 362.697 83.6329 362.697 79.7802C362.697 78.5877 362.819 77.227 363.063 75.6982L374.484 74.0929C374.362 74.6738 374.301 75.2854 374.301 75.9275C374.301 78.2819 375.233 80.086 377.098 81.3396C378.994 82.5933 381.471 83.2201 384.529 83.2201C387.036 83.2201 389.008 82.8074 390.445 81.9818C391.913 81.1256 392.647 79.979 392.647 78.5418C392.647 77.2882 391.882 76.218 390.354 75.3312C388.855 74.4445 386.501 73.6495 383.29 72.9462L381.96 72.6252ZM425.028 48.8667V29.3738H410.81V95.6956H424.615V74.7808C424.615 72.3347 425.043 70.179 425.9 68.3138C426.786 66.418 428.009 64.9503 429.569 63.9107C431.128 62.871 432.917 62.3512 434.935 62.3512C437.656 62.3512 439.674 63.1768 440.989 64.828C442.335 66.4486 443.007 68.803 443.007 71.8913V95.6956H456.813V67.4882C456.813 63.2685 456.37 59.6757 455.483 56.7097C454.596 53.7438 453.021 51.4046 450.759 49.6923C448.496 47.98 445.377 47.1238 441.402 47.1238C436.632 47.1238 432.749 49.0655 429.752 52.9488C426.786 56.8015 424.615 62.076 423.239 68.7724H422.689C422.811 67.8551 423.071 66.2192 423.469 63.8648C423.958 61.174 424.34 58.7125 424.615 56.4804C424.89 54.2483 425.028 51.7104 425.028 48.8667ZM465.13 57.5663C468.009 57.5663 470.342 55.2326 470.342 52.3539C470.342 49.4751 468.009 47.1414 465.13 47.1414C462.251 47.1414 459.918 49.4751 459.918 52.3539C459.918 55.2326 462.251 57.5663 465.13 57.5663ZM465.13 58.4808C468.514 58.4808 471.257 55.7377 471.257 52.3539C471.257 48.97 468.514 46.2269 465.13 46.2269C461.746 46.2269 459.003 48.97 459.003 52.3539C459.003 55.7377 461.746 58.4808 465.13 58.4808ZM463.497 54.8186V50.0301H465.293C465.661 50.0301 465.969 50.094 466.219 50.2218C466.47 50.3497 466.659 50.5289 466.787 50.7596C466.916 50.9887 466.981 51.2561 466.981 51.5616C466.981 51.8687 466.916 52.1352 466.785 52.3612C466.655 52.5857 466.464 52.7595 466.212 52.8826C466.195 52.8907 466.178 52.8985 466.161 52.906C466.148 52.9118 466.134 52.9174 466.121 52.9229L467.156 54.8186H466.188L465.247 53.065H464.365V54.8186H463.497ZM465.164 52.3449H464.365V50.7549H465.16C465.376 50.7549 465.553 50.7869 465.69 50.8508C465.828 50.9131 465.93 51.0051 465.997 51.1267C466.064 51.2467 466.097 51.3917 466.097 51.5616C466.097 51.7315 466.064 51.8749 465.997 51.9918C465.931 52.1071 465.83 52.1952 465.693 52.256C465.556 52.3152 465.379 52.3449 465.164 52.3449Z" fill="white"/>
<path fill-rule="evenodd" clip-rule="evenodd" d="M58.0069 56.2786C66.5214 53.1166 70.2938 41.1563 63.4888 26.7901C58.385 15.0702 42.1285 -4.39977 30.9757 0.893025C22.4613 4.05502 24.3597 20.7411 30.0306 33.7841C35.3006 47.9749 49.4925 59.4406 58.0069 56.2786ZM71.697 70.817C63.2113 74.0555 59.5466 86.0492 66.4806 100.354C71.6895 112.027 88.1107 131.801 99.2153 126.408C107.701 123.17 105.662 106.05 99.8745 93.059C94.4771 78.9162 80.1827 67.5786 71.697 70.817ZM96.1909 35.1074C89.9195 44.8696 81.124 49.9212 75.7322 45.7604C72.5622 43.3142 70.861 32.2719 77.666 18.4728C85.2272 6.94201 90.142 2.02726 98.2702 6.37494C106.398 9.96649 102.141 25.8449 96.1909 35.1074ZM54.1248 81.4001C48.7411 77.2287 39.9358 82.2629 33.6451 92.0128C27.6766 101.263 23.388 117.133 31.5092 120.741C39.6288 125.105 44.5533 120.2 52.1372 108.684C58.9694 94.8981 57.2899 83.8525 54.1248 81.4001ZM28.5751 51.2032C39.6849 54.5505 46.959 61.6192 44.44 67.9468C42.9591 71.667 32.3146 76.4204 17.1766 73.6693C4.01195 69.5679 -1.56923 66.1097 0.377425 57.0996C2.32408 48.0896 18.0341 48.0273 28.5751 51.2032ZM85.0051 59.9395C82.8862 66.4121 92.1946 73.9487 103.492 76.5957C114.21 79.1072 128.91 77.8958 129.578 69.0346C130.958 59.9205 122.962 55.8025 110.297 53.1561C95.3635 51.0768 86.2508 56.1341 85.0051 59.9395Z" fill="#EFF500"/>
<path d="M470.465 78.805L474.08 70H475.88V80.35H474.665V71.485L471.035 80.35H469.895L466.265 71.485V80.35H465.05V70H466.85L470.465 78.805Z" fill="white"/>
<path d="M485.344 76.675C485.344 76.75 485.329 76.87 485.314 77.035H478.714C478.789 77.77 479.089 78.37 479.599 78.835C480.109 79.3 480.739 79.54 481.489 79.54C482.704 79.54 483.754 78.76 484.069 77.665H485.239C485.044 78.49 484.594 79.165 483.889 79.69C483.184 80.215 482.374 80.485 481.474 80.485C480.349 80.485 479.434 80.125 478.699 79.405C477.964 78.685 477.589 77.77 477.589 76.675C477.589 75.58 477.949 74.665 478.684 73.945C479.419 73.24 480.349 72.88 481.474 72.88C482.599 72.88 483.514 73.24 484.249 73.945C484.984 74.665 485.344 75.58 485.344 76.675ZM483.334 74.47C482.824 74.035 482.209 73.825 481.489 73.825C480.769 73.825 480.154 74.035 479.659 74.47C479.164 74.905 478.849 75.46 478.744 76.15H484.249C484.144 75.475 483.844 74.905 483.334 74.47Z" fill="white"/>
<path d="M492.992 74.35V70H494.132V80.35H492.992V79.015C492.302 79.99 491.327 80.485 490.052 80.485C488.987 80.485 488.117 80.125 487.442 79.405C486.752 78.685 486.407 77.77 486.407 76.675C486.407 75.58 486.752 74.665 487.442 73.945C488.117 73.24 488.987 72.88 490.052 72.88C491.327 72.88 492.302 73.375 492.992 74.35ZM490.292 79.48C491.072 79.48 491.717 79.21 492.227 78.685C492.737 78.16 492.992 77.5 492.992 76.675C492.992 75.865 492.737 75.19 492.227 74.665C491.717 74.14 491.072 73.885 490.292 73.885C489.497 73.885 488.852 74.14 488.342 74.665C487.832 75.19 487.577 75.865 487.577 76.675C487.577 77.5 487.832 78.16 488.342 78.685C488.852 79.21 489.497 79.48 490.292 79.48Z" fill="white"/>
<path d="M497.435 71.05C497.54 72.01 495.8 72.01 495.89 71.05C495.89 70.63 496.205 70.33 496.67 70.33C497.105 70.33 497.435 70.63 497.435 71.05ZM496.1 80.35V73H497.24V80.35H496.1Z" fill="white"/>
<path d="M505.251 77.335H506.406C506.286 78.25 505.866 79 505.161 79.585C504.456 80.185 503.601 80.485 502.626 80.485C501.501 80.485 500.586 80.125 499.851 79.405C499.116 78.685 498.741 77.77 498.741 76.675C498.741 75.58 499.101 74.665 499.836 73.945C500.571 73.24 501.501 72.88 502.626 72.88C503.601 72.88 504.441 73.18 505.161 73.765C505.866 74.35 506.286 75.1 506.406 76.015H505.251C505.011 74.77 503.931 73.885 502.626 73.885C501.831 73.885 501.186 74.14 500.676 74.665C500.166 75.19 499.911 75.865 499.911 76.675C499.911 77.5 500.166 78.16 500.676 78.685C501.186 79.21 501.831 79.48 502.626 79.48C503.946 79.48 505.011 78.595 505.251 77.335Z" fill="white"/>
<path d="M514.057 74.35V73H515.197V80.35H514.057V79.015C513.367 79.99 512.392 80.485 511.117 80.485C510.052 80.485 509.182 80.125 508.507 79.405C507.817 78.685 507.472 77.77 507.472 76.675C507.472 75.58 507.817 74.665 508.507 73.945C509.182 73.24 510.052 72.88 511.117 72.88C512.392 72.88 513.367 73.375 514.057 74.35ZM511.357 79.48C512.137 79.48 512.782 79.21 513.292 78.685C513.802 78.16 514.057 77.5 514.057 76.675C514.057 75.865 513.802 75.19 513.292 74.665C512.782 74.14 512.137 73.885 511.357 73.885C510.562 73.885 509.917 74.14 509.407 74.665C508.897 75.19 508.642 75.865 508.642 76.675C508.642 77.5 508.897 78.16 509.407 78.685C509.917 79.21 510.562 79.48 511.357 79.48Z" fill="white"/>
<path d="M517.18 80.35V70H518.335V80.35H517.18Z" fill="white"/>
<path d="M473.72 95.35H472.415L471.44 92.845H466.28L465.32 95.35H464L468.125 85H469.595L473.72 95.35ZM468.86 86.2L466.685 91.84H471.05L468.86 86.2Z" fill="white"/>
<path d="M482.048 91.675C482.048 91.75 482.033 91.87 482.018 92.035H475.418C475.493 92.77 475.793 93.37 476.303 93.835C476.813 94.3 477.443 94.54 478.193 94.54C479.408 94.54 480.458 93.76 480.773 92.665H481.943C481.748 93.49 481.298 94.165 480.593 94.69C479.888 95.215 479.078 95.485 478.178 95.485C477.053 95.485 476.138 95.125 475.403 94.405C474.668 93.685 474.293 92.77 474.293 91.675C474.293 90.58 474.653 89.665 475.388 88.945C476.123 88.24 477.053 87.88 478.178 87.88C479.303 87.88 480.218 88.24 480.953 88.945C481.688 89.665 482.048 90.58 482.048 91.675ZM480.038 89.47C479.528 89.035 478.913 88.825 478.193 88.825C477.473 88.825 476.858 89.035 476.363 89.47C475.868 89.905 475.553 90.46 475.448 91.15H480.953C480.848 90.475 480.548 89.905 480.038 89.47Z" fill="white"/>
<path d="M486.141 87.88C487.746 87.88 488.856 88.75 488.856 90.01H487.791C487.746 89.245 487.101 88.735 486.126 88.735C485.181 88.735 484.551 89.185 484.551 89.86C484.551 90.295 484.701 90.595 485.091 90.775C485.481 90.97 485.631 91 486.276 91.135C486.816 91.24 486.741 91.225 487.296 91.36C487.776 91.495 487.911 91.585 488.286 91.81C488.796 92.125 488.991 92.605 489.036 93.325C489.036 94.6 487.866 95.485 486.171 95.485C484.476 95.485 483.291 94.57 483.246 93.265H484.371C484.386 94.06 485.136 94.615 486.201 94.615C487.206 94.615 487.911 94.12 487.911 93.385C487.836 92.815 487.686 92.545 487.146 92.365C486.726 92.245 486.651 92.23 486.111 92.125C485.511 92.02 485.241 91.99 484.686 91.765C484.401 91.66 484.191 91.525 484.026 91.39C483.711 91.105 483.411 90.61 483.411 89.965C483.411 88.705 484.521 87.88 486.141 87.88Z" fill="white"/>
<path d="M492.466 88H494.146V88.975H492.466V95.35H491.326V88.975H489.961V88H491.326V86.125H492.466V88Z" fill="white"/>
<path d="M499.013 87.88C499.883 87.88 500.588 88.15 501.128 88.705C501.668 89.26 501.938 90.01 501.938 90.925V95.35H500.798V91.06C500.798 89.68 499.958 88.795 498.683 88.795C497.378 88.795 496.538 89.68 496.538 91.06V95.35H495.383V85H496.538V89.305C497.033 88.36 497.858 87.88 499.013 87.88Z" fill="white"/>
<path d="M511.154 91.675C511.154 91.75 511.139 91.87 511.124 92.035H504.524C504.599 92.77 504.899 93.37 505.409 93.835C505.919 94.3 506.549 94.54 507.299 94.54C508.514 94.54 509.564 93.76 509.879 92.665H511.049C510.854 93.49 510.404 94.165 509.699 94.69C508.994 95.215 508.184 95.485 507.284 95.485C506.159 95.485 505.244 95.125 504.509 94.405C503.774 93.685 503.399 92.77 503.399 91.675C503.399 90.58 503.759 89.665 504.494 88.945C505.229 88.24 506.159 87.88 507.284 87.88C508.409 87.88 509.324 88.24 510.059 88.945C510.794 89.665 511.154 90.58 511.154 91.675ZM509.144 89.47C508.634 89.035 508.019 88.825 507.299 88.825C506.579 88.825 505.964 89.035 505.469 89.47C504.974 89.905 504.659 90.46 504.554 91.15H510.059C509.954 90.475 509.654 89.905 509.144 89.47Z" fill="white"/>
<path d="M514.277 88H515.957V88.975H514.277V95.35H513.137V88.975H511.772V88H513.137V86.125H514.277V88Z" fill="white"/>
<path d="M518.514 86.05C518.619 87.01 516.879 87.01 516.969 86.05C516.969 85.63 517.284 85.33 517.749 85.33C518.184 85.33 518.514 85.63 518.514 86.05ZM517.179 95.35V88H518.319V95.35H517.179Z" fill="white"/>
<path d="M526.33 92.335H527.485C527.365 93.25 526.945 94 526.24 94.585C525.535 95.185 524.68 95.485 523.705 95.485C522.58 95.485 521.665 95.125 520.93 94.405C520.195 93.685 519.82 92.77 519.82 91.675C519.82 90.58 520.18 89.665 520.915 88.945C521.65 88.24 522.58 87.88 523.705 87.88C524.68 87.88 525.52 88.18 526.24 88.765C526.945 89.35 527.365 90.1 527.485 91.015H526.33C526.09 89.77 525.01 88.885 523.705 88.885C522.91 88.885 522.265 89.14 521.755 89.665C521.245 90.19 520.99 90.865 520.99 91.675C520.99 92.5 521.245 93.16 521.755 93.685C522.265 94.21 522.91 94.48 523.705 94.48C525.025 94.48 526.09 93.595 526.33 92.335Z" fill="white"/>
<path d="M531.581 87.88C533.186 87.88 534.296 88.75 534.296 90.01H533.231C533.186 89.245 532.541 88.735 531.566 88.735C530.621 88.735 529.991 89.185 529.991 89.86C529.991 90.295 530.141 90.595 530.531 90.775C530.921 90.97 531.071 91 531.716 91.135C532.256 91.24 532.181 91.225 532.736 91.36C533.216 91.495 533.351 91.585 533.726 91.81C534.236 92.125 534.431 92.605 534.476 93.325C534.476 94.6 533.306 95.485 531.611 95.485C529.916 95.485 528.731 94.57 528.686 93.265H529.811C529.826 94.06 530.576 94.615 531.641 94.615C532.646 94.615 533.351 94.12 533.351 93.385C533.276 92.815 533.126 92.545 532.586 92.365C532.166 92.245 532.091 92.23 531.551 92.125C530.951 92.02 530.681 91.99 530.126 91.765C529.841 91.66 529.631 91.525 529.466 91.39C529.151 91.105 528.851 90.61 528.851 89.965C528.851 88.705 529.961 87.88 531.581 87.88Z" fill="white"/>
</svg>
