<svg width="1440" height="550" viewBox="0 0 1440 550" fill="none" xmlns="http://www.w3.org/2000/svg">
<path d="M-1028.81 418.875C-987.439 418.875 -946.995 406.606 -912.594 383.621C-878.193 360.635 -851.381 327.964 -835.548 289.74C-819.715 251.516 -815.573 209.456 -823.644 168.877C-831.716 128.299 -851.639 91.025 -880.895 61.77C-910.15 32.514 -947.424 12.591 -988.002 4.52C-1028.58 -3.552 -1070.64 0.591 -1108.87 16.424C-1147.09 32.256 -1179.76 59.069 -1202.74 93.469C-1225.73 127.87 -1238 168.314 -1238 209.688H-1028.81V418.875ZM-1028.81 418.875C-1056.28 418.875 -1083.49 424.286 -1108.87 434.799C-1134.25 445.311 -1157.31 460.72 -1176.73 480.145C-1196.15 499.57 -1211.56 522.63 -1222.08 548.01C-1232.59 573.39 -1238 600.592 -1238 628.063C-1238 655.533 -1232.59 682.735 -1222.08 708.115C-1211.56 733.495 -1196.15 756.556 -1176.73 775.98C-1157.31 795.405 -1134.25 810.814 -1108.87 821.327C-1083.49 831.839 -1056.28 837.25 -1028.81 837.25V418.875ZM-1028.81 1255.62C-1056.28 1255.63 -1083.49 1250.21 -1108.87 1239.7C-1134.25 1229.19 -1157.31 1213.78 -1176.73 1194.36C-1196.15 1174.93 -1211.56 1151.87 -1222.08 1126.49C-1232.59 1101.11 -1238 1073.91 -1238 1046.44H-819.625M-1028.81 1255.62C-1001.34 1255.62 -974.14 1250.21 -948.76 1239.7C-923.38 1229.19 -900.319 1213.78 -880.895 1194.36C-861.47 1174.93 -846.061 1151.87 -835.548 1126.49C-825.036 1101.11 -819.625 1073.91 -819.625 1046.44M-1028.81 1255.62C-1056.28 1255.62 -1083.49 1261.04 -1108.87 1271.55C-1134.25 1282.06 -1157.31 1297.47 -1176.73 1316.89C-1196.15 1336.32 -1211.56 1359.38 -1222.08 1384.76C-1232.59 1410.14 -1238 1437.34 -1238 1464.81H-1028.81M-1028.81 1255.62V1464.81M-819.625 1046.44C-819.625 1005.06 -807.356 964.62 -784.37 930.219C-761.385 895.818 -728.714 869.006 -690.49 853.173C-652.266 837.341 -610.205 833.198 -569.627 841.27C-529.049 849.341 -491.775 869.264 -462.519 898.52C-433.264 927.775 -413.341 965.049 -405.269 1005.63C-397.198 1046.21 -401.34 1088.27 -417.173 1126.49C-433.006 1164.71 -459.818 1197.38 -494.219 1220.37C-528.62 1243.36 -569.064 1255.63 -610.437 1255.62M-819.625 1046.44H-610.437V1255.62M-1028.81 1464.81V1674C-1001.34 1674 -974.14 1668.59 -948.76 1658.08C-923.38 1647.56 -900.319 1632.16 -880.895 1612.73C-861.47 1593.31 -846.061 1570.24 -835.548 1544.87C-825.036 1519.49 -819.625 1492.28 -819.625 1464.81M-1028.81 1464.81H-819.625M-610.437 1255.62C-637.908 1255.62 -665.11 1261.04 -690.49 1271.55C-715.87 1282.06 -738.93 1297.47 -758.355 1316.89C-777.78 1336.32 -793.189 1359.38 -803.701 1384.76C-814.214 1410.14 -819.625 1437.34 -819.625 1464.81M-610.437 1255.62V1674C-637.908 1674 -665.11 1668.59 -690.49 1658.08C-715.87 1647.56 -738.93 1632.16 -758.355 1612.73C-777.78 1593.31 -793.189 1570.24 -803.701 1544.87C-814.214 1519.49 -819.625 1492.28 -819.625 1464.81M-819.625 1883.19C-819.625 1841.81 -831.894 1801.37 -854.879 1766.97C-877.865 1732.57 -910.536 1705.76 -948.76 1689.92C-986.984 1674.09 -1029.04 1669.95 -1069.62 1678.02C-1110.2 1686.09 -1147.48 1706.01 -1176.73 1735.27C-1205.99 1764.53 -1225.91 1801.8 -1233.98 1842.38C-1242.05 1882.96 -1237.91 1925.02 -1222.08 1963.24C-1206.24 2001.46 -1179.43 2034.13 -1145.03 2057.12C-1110.63 2080.11 -1070.19 2092.38 -1028.81 2092.38V1883.19H-819.625ZM-819.625 1883.19C-819.625 1841.81 -807.356 1801.37 -784.37 1766.97C-761.385 1732.57 -728.714 1705.76 -690.49 1689.92C-652.266 1674.09 -610.205 1669.95 -569.627 1678.02C-529.049 1686.09 -491.775 1706.01 -462.519 1735.27C-433.264 1764.53 -413.341 1801.8 -405.269 1842.38C-397.198 1882.96 -401.34 1925.02 -417.173 1963.24C-433.006 2001.46 -459.818 2034.13 -494.219 2057.12C-528.62 2080.11 -569.064 2092.38 -610.437 2092.38V1883.19H-819.625ZM-880.895 2153.64C-910.15 2124.39 -947.424 2104.47 -988.002 2096.39C-1028.58 2088.32 -1070.64 2092.47 -1108.87 2108.3C-1147.09 2124.13 -1179.76 2150.94 -1202.74 2185.34M-610.437 418.875C-637.908 418.875 -665.11 413.464 -690.49 402.952C-715.87 392.439 -738.93 377.03 -758.355 357.605C-777.78 338.181 -793.189 315.12 -803.701 289.74C-814.214 264.36 -819.625 237.158 -819.625 209.688H-401.25M-610.437 418.875C-582.966 418.875 -555.765 413.464 -530.385 402.952C-505.005 392.439 -481.944 377.03 -462.519 357.605C-443.095 338.181 -427.686 315.12 -417.173 289.74C-406.661 264.36 -401.25 237.158 -401.25 209.688M-610.437 418.875C-637.908 418.875 -665.11 424.286 -690.49 434.799C-715.87 445.311 -738.93 460.72 -758.355 480.145C-777.78 499.57 -793.189 522.63 -803.701 548.01C-814.214 573.39 -819.625 600.592 -819.625 628.063H-610.437M-610.437 418.875V628.063M-401.25 209.688C-401.25 182.217 -395.839 155.015 -385.326 129.635C-374.814 104.255 -359.405 81.195 -339.98 61.77C-320.555 42.345 -297.495 26.936 -272.115 16.424C-246.735 5.911 -219.53 0.5 -192.06 0.5V418.875M-401.25 209.688C-401.25 237.158 -395.839 264.36 -385.326 289.74C-374.814 315.12 -359.405 338.181 -339.98 357.605C-320.555 377.03 -297.495 392.439 -272.115 402.952C-246.735 413.464 -219.53 418.875 -192.06 418.875M-610.437 628.063H-401.25C-401.25 655.533 -406.661 682.735 -417.173 708.115C-427.686 733.495 -443.095 756.556 -462.519 775.981C-481.944 795.405 -505.005 810.814 -530.385 821.327C-555.765 831.839 -582.967 837.25 -610.437 837.25V628.063ZM-192.06 418.875C-164.59 418.875 -137.39 424.286 -112.01 434.799C-86.63 445.311 -63.57 460.72 -44.14 480.145C-24.72 499.57 -9.31005 522.63 1.19995 548.01C11.71 573.39 17.13 600.592 17.13 628.063M-192.06 418.875V837.25C-164.59 837.25 -137.39 831.839 -112.01 821.327C-86.63 810.814 -63.57 795.405 -44.14 775.98C-24.72 756.556 -9.31005 733.495 1.19995 708.115C11.71 682.735 17.13 655.533 17.13 628.063M17.13 628.063C17.13 600.592 22.54 573.39 33.05 548.01C43.56 522.63 58.97 499.57 78.39 480.145C97.82 460.72 120.88 445.311 146.26 434.799C171.64 424.286 198.84 418.875 226.31 418.875M17.13 628.063C17.13 655.533 22.54 682.735 33.05 708.115C43.56 733.495 58.97 756.556 78.39 775.98C97.82 795.405 120.88 810.814 146.26 821.327C171.64 831.839 198.84 837.25 226.31 837.25M226.31 418.875C184.94 418.875 144.49 406.606 110.09 383.621C75.69 360.635 48.88 327.964 33.05 289.74C17.22 251.516 13.07 209.456 21.14 168.877C29.22 128.299 49.14 91.025 78.39 61.77C107.65 32.514 144.92 12.591 185.5 4.52C226.08 -3.552 268.14 0.591 306.37 16.424C344.59 32.257 377.26 59.069 400.25 93.469C423.23 127.87 435.5 168.314 435.5 209.688M226.31 418.875V209.688H435.5M226.31 418.875V837.25M226.31 837.25C253.78 837.25 280.99 842.661 306.37 853.173C331.75 863.686 354.81 879.095 374.23 898.52C393.66 917.945 409.06 941.005 419.58 966.385C430.09 991.765 435.5 1018.97 435.5 1046.44M226.31 837.25V1255.62C253.78 1255.62 280.99 1250.21 306.37 1239.7C331.75 1229.19 354.81 1213.78 374.23 1194.36C393.66 1174.93 409.06 1151.87 419.58 1126.49C430.09 1101.11 435.5 1073.91 435.5 1046.44M-192.06 1255.62C-233.44 1255.63 -273.88 1243.36 -308.281 1220.37C-342.681 1197.38 -369.494 1164.71 -385.326 1126.49C-401.159 1088.27 -405.302 1046.21 -397.23 1005.63C-389.159 965.049 -369.236 927.775 -339.98 898.52C-310.725 869.264 -273.451 849.341 -232.87 841.27C-192.29 833.198 -150.23 837.341 -112.01 853.173C-73.79 869.006 -41.12 895.818 -18.13 930.219C4.85999 964.62 17.13 1005.06 17.13 1046.44H-192.06V1255.62ZM-192.06 1255.62C-164.59 1255.62 -137.39 1261.04 -112.01 1271.55C-86.63 1282.06 -63.57 1297.47 -44.14 1316.89C-24.72 1336.32 -9.31005 1359.38 1.19995 1384.76C11.71 1410.14 17.13 1437.34 17.13 1464.81M-192.06 1255.62V1674M17.13 1464.81C17.13 1492.28 11.71 1519.49 1.19995 1544.87C-9.31005 1570.24 -24.72 1593.31 -44.14 1612.73C-63.57 1632.16 -86.63 1647.56 -112.01 1658.08C-137.39 1668.59 -164.59 1674 -192.06 1674M17.13 1464.81C17.13 1423.44 29.39 1382.99 52.38 1348.59C75.37 1314.19 108.04 1287.38 146.26 1271.55C184.48 1255.72 226.54 1251.57 267.12 1259.64C307.7 1267.72 344.98 1287.64 374.23 1316.89C403.49 1346.15 423.41 1383.42 431.48 1424C439.55 1464.58 435.41 1506.64 419.58 1544.87C403.74 1583.09 376.93 1615.76 342.53 1638.75C308.13 1661.73 267.69 1674 226.31 1674M17.13 1464.81H226.31V1674M-192.06 1674C-219.53 1674 -246.735 1679.41 -272.115 1689.92C-297.495 1700.44 -320.555 1715.84 -339.98 1735.27C-359.405 1754.69 -374.814 1777.76 -385.326 1803.14C-395.839 1828.51 -401.25 1855.72 -401.25 1883.19H-192.06M-192.06 1674V1883.19M-192.06 1883.19H17.13C17.13 1910.66 11.71 1937.86 1.19995 1963.24C-9.31005 1988.62 -24.72 2011.68 -44.14 2031.11C-63.57 2050.53 -86.63 2065.94 -112.01 2076.45C-137.39 2086.96 -164.59 2092.38 -192.06 2092.38M-192.06 1883.19V2092.38M226.31 1674C253.78 1674 280.99 1679.41 306.37 1689.92C331.75 1700.44 354.81 1715.84 374.23 1735.27C393.66 1754.69 409.06 1777.76 419.58 1803.14C430.09 1828.51 435.5 1855.72 435.5 1883.19C435.5 1910.66 430.09 1937.86 419.58 1963.24C409.06 1988.62 393.66 2011.68 374.23 2031.11C354.81 2050.53 331.75 2065.94 306.37 2076.45C280.99 2086.96 253.78 2092.37 226.31 2092.38V1674ZM-192.06 2092.38C-219.53 2092.38 -246.735 2097.79 -272.115 2108.3C-297.495 2118.81 -320.555 2134.22 -339.98 2153.64C-359.405 2173.07 -374.814 2196.13 -385.326 2221.51M435.5 209.688C435.5 168.314 447.77 127.87 470.75 93.469C493.74 59.069 526.41 32.256 564.64 16.424C602.86 0.591 644.92 -3.552 685.5 4.52C726.08 12.591 763.35 32.514 792.61 61.77C821.86 91.025 841.78 128.299 849.86 168.877C857.93 209.456 853.78 251.516 837.95 289.74C822.12 327.964 795.31 360.635 760.91 383.621C726.51 406.606 686.06 418.875 644.69 418.875M435.5 209.688H644.69V418.875M644.69 418.875C617.22 418.875 590.01 424.286 564.64 434.799C539.26 445.311 516.19 460.72 496.77 480.145C477.34 499.57 461.94 522.63 451.42 548.01C440.91 573.39 435.5 600.592 435.5 628.063C435.5 655.533 440.91 682.735 451.42 708.115C461.94 733.495 477.34 756.556 496.77 775.98C516.19 795.405 539.26 810.814 564.64 821.327C590.01 831.839 617.22 837.25 644.69 837.25V418.875ZM435.5 1046.44C435.5 1073.91 440.91 1101.11 451.42 1126.49C461.94 1151.87 477.34 1174.93 496.77 1194.36C516.19 1213.78 539.26 1229.19 564.64 1239.7C590.01 1250.21 617.22 1255.63 644.69 1255.62M435.5 1046.44H853.88M644.69 1255.62C672.16 1255.62 699.36 1250.21 724.74 1239.7C750.12 1229.19 773.18 1213.78 792.61 1194.36C812.03 1174.93 827.44 1151.87 837.95 1126.49C848.46 1101.11 853.88 1073.91 853.88 1046.44M644.69 1255.62C617.22 1255.62 590.01 1261.04 564.64 1271.55C539.26 1282.06 516.19 1297.47 496.77 1316.89C477.34 1336.32 461.94 1359.38 451.42 1384.76C440.91 1410.14 435.5 1437.34 435.5 1464.81H644.69M644.69 1255.62V1464.81M853.88 1046.44C853.88 1005.06 866.14 964.62 889.13 930.219C912.12 895.818 944.79 869.006 983.01 853.173C1021.23 837.341 1063.29 833.198 1103.87 841.27C1144.45 849.341 1181.73 869.264 1210.98 898.52C1240.24 927.775 1260.16 965.049 1268.23 1005.63C1276.3 1046.21 1272.16 1088.27 1256.33 1126.49C1240.49 1164.71 1213.68 1197.38 1179.28 1220.37C1144.88 1243.36 1104.44 1255.63 1063.06 1255.62M853.88 1046.44H1063.06V1255.62M400.25 2185.34C377.26 2150.94 344.59 2124.13 306.37 2108.3C268.14 2092.47 226.08 2088.32 185.5 2096.39C144.92 2104.47 107.65 2124.39 78.39 2153.64M644.69 1464.81V1674C672.16 1674 699.36 1668.59 724.74 1658.08C750.12 1647.56 773.18 1632.16 792.61 1612.73C812.03 1593.31 827.44 1570.24 837.95 1544.87C848.46 1519.49 853.88 1492.28 853.88 1464.81M644.69 1464.81H853.88M1063.06 1255.62C1035.59 1255.62 1008.39 1261.04 983.01 1271.55C957.63 1282.06 934.57 1297.47 915.14 1316.89C895.72 1336.32 880.31 1359.38 869.8 1384.76C859.29 1410.14 853.87 1437.34 853.88 1464.81M1063.06 1255.62V1674C1035.59 1674 1008.39 1668.59 983.01 1658.08C957.63 1647.56 934.57 1632.16 915.14 1612.73C895.72 1593.31 880.31 1570.24 869.8 1544.87C859.29 1519.49 853.88 1492.28 853.88 1464.81M853.88 1883.19C853.88 1841.81 841.61 1801.37 818.62 1766.97C795.63 1732.57 762.96 1705.76 724.74 1689.92C686.52 1674.09 644.46 1669.95 603.88 1678.02C563.3 1686.09 526.03 1706.01 496.77 1735.27C467.51 1764.53 447.59 1801.8 439.52 1842.38C431.45 1882.96 435.59 1925.02 451.42 1963.24C467.26 2001.46 494.07 2034.13 528.47 2057.12C562.87 2080.11 603.31 2092.38 644.69 2092.38V1883.19H853.88ZM853.88 1883.19C853.88 1841.81 866.14 1801.37 889.13 1766.97C912.12 1732.57 944.79 1705.76 983.01 1689.92C1021.23 1674.09 1063.29 1669.95 1103.87 1678.02C1144.45 1686.09 1181.73 1706.01 1210.98 1735.27C1240.24 1764.53 1260.16 1801.8 1268.23 1842.38C1276.3 1882.96 1272.16 1925.02 1256.33 1963.24C1240.49 2001.46 1213.68 2034.13 1179.28 2057.12C1144.88 2080.11 1104.44 2092.38 1063.06 2092.38V1883.19H853.88ZM792.61 2153.64C763.35 2124.39 726.08 2104.47 685.5 2096.39C644.92 2088.32 602.86 2092.47 564.64 2108.3C526.41 2124.13 493.74 2150.94 470.75 2185.34M1063.06 418.875C1035.59 418.875 1008.39 413.464 983.01 402.952C957.63 392.439 934.57 377.03 915.14 357.605C895.72 338.181 880.31 315.12 869.8 289.74C859.29 264.36 853.87 237.158 853.87 209.688H1272.25M1063.06 418.875C1090.53 418.875 1117.74 413.464 1143.11 402.952C1168.49 392.439 1191.56 377.03 1210.98 357.605C1230.41 338.181 1245.81 315.12 1256.33 289.74C1266.84 264.36 1272.25 237.158 1272.25 209.688M1063.06 418.875C1035.59 418.875 1008.39 424.286 983.01 434.799C957.63 445.311 934.57 460.72 915.14 480.145C895.72 499.57 880.31 522.63 869.8 548.01C859.29 573.39 853.87 600.592 853.88 628.063H1063.06M1063.06 418.875V628.063M1272.25 209.688C1272.25 182.217 1277.66 155.015 1288.17 129.635C1298.69 104.255 1314.09 81.195 1333.52 61.77C1352.94 42.345 1376.01 26.936 1401.39 16.424C1426.76 5.911 1453.97 0.5 1481.44 0.5V418.875M1272.25 209.688C1272.25 237.158 1277.66 264.36 1288.17 289.74C1298.69 315.12 1314.09 338.181 1333.52 357.605C1352.94 377.03 1376.01 392.439 1401.39 402.952C1426.76 413.464 1453.97 418.875 1481.44 418.875M1063.06 628.063H1272.25C1272.25 655.533 1266.84 682.735 1256.33 708.115C1245.81 733.495 1230.41 756.556 1210.98 775.981C1191.56 795.405 1168.49 810.814 1143.11 821.327C1117.74 831.839 1090.53 837.25 1063.06 837.25V628.063ZM1481.44 418.875C1508.91 418.875 1536.11 424.286 1561.49 434.799C1586.87 445.311 1609.93 460.72 1629.36 480.145C1648.78 499.57 1664.19 522.63 1674.7 548.01C1685.21 573.39 1690.62 600.592 1690.62 628.063M1481.44 418.875V837.25C1508.91 837.25 1536.11 831.839 1561.49 821.327C1586.87 810.814 1609.93 795.405 1629.36 775.98C1648.78 756.556 1664.19 733.495 1674.7 708.115C1685.21 682.735 1690.62 655.533 1690.62 628.063M1690.62 628.063C1690.62 600.592 1696.04 573.39 1706.55 548.01C1717.06 522.63 1732.47 499.57 1751.89 480.145C1771.32 460.72 1794.38 445.311 1819.76 434.799C1845.14 424.286 1872.34 418.875 1899.81 418.875M1690.62 628.063C1690.62 655.533 1696.04 682.735 1706.55 708.115C1717.06 733.495 1732.47 756.556 1751.89 775.98C1771.32 795.405 1794.38 810.814 1819.76 821.327C1845.14 831.839 1872.34 837.25 1899.81 837.25M1899.81 418.875C1858.44 418.875 1817.99 406.606 1783.59 383.621C1749.19 360.635 1722.38 327.964 1706.55 289.74C1690.72 251.516 1686.57 209.456 1694.64 168.877C1702.72 128.299 1722.64 91.025 1751.89 61.77C1781.15 32.514 1818.42 12.591 1859 4.52C1899.58 -3.552 1941.64 0.591 1979.87 16.424C2018.09 32.257 2050.76 59.069 2073.75 93.469C2096.73 127.87 2109 168.314 2109 209.688M1899.81 418.875V209.688H2109M1899.81 418.875V837.25M1899.81 837.25C1927.28 837.25 1954.49 842.661 1979.87 853.173C2005.25 863.686 2028.31 879.095 2047.73 898.52C2067.16 917.945 2082.56 941.005 2093.08 966.385C2103.59 991.765 2109 1018.97 2109 1046.44M1899.81 837.25V1255.62C1927.28 1255.62 1954.49 1250.21 1979.87 1239.7C2005.25 1229.19 2028.31 1213.78 2047.73 1194.36C2067.16 1174.93 2082.56 1151.87 2093.08 1126.49C2103.59 1101.11 2109 1073.91 2109 1046.44M1481.44 1255.62C1440.06 1255.63 1399.62 1243.36 1365.22 1220.37C1330.82 1197.38 1304.01 1164.71 1288.17 1126.49C1272.34 1088.27 1268.2 1046.21 1276.27 1005.63C1284.34 965.049 1304.26 927.775 1333.52 898.52C1362.77 869.264 1400.05 849.341 1440.63 841.27C1481.21 833.198 1523.27 837.341 1561.49 853.173C1599.71 869.006 1632.38 895.818 1655.37 930.219C1678.36 964.62 1690.62 1005.06 1690.62 1046.44H1481.44V1255.62ZM1481.44 1255.62C1508.91 1255.62 1536.11 1261.04 1561.49 1271.55C1586.87 1282.06 1609.93 1297.47 1629.36 1316.89C1648.78 1336.32 1664.19 1359.38 1674.7 1384.76C1685.21 1410.14 1690.62 1437.34 1690.62 1464.81M1481.44 1255.62V1674M1690.62 1464.81C1690.62 1492.28 1685.21 1519.49 1674.7 1544.87C1664.19 1570.24 1648.78 1593.31 1629.36 1612.73C1609.93 1632.16 1586.87 1647.56 1561.49 1658.08C1536.11 1668.59 1508.91 1674 1481.44 1674M1690.62 1464.81C1690.62 1423.44 1702.89 1382.99 1725.88 1348.59C1748.87 1314.19 1781.54 1287.38 1819.76 1271.55C1857.98 1255.72 1900.04 1251.57 1940.62 1259.64C1981.2 1267.72 2018.48 1287.64 2047.73 1316.89C2076.99 1346.15 2096.91 1383.42 2104.98 1424C2113.05 1464.58 2108.91 1506.64 2093.08 1544.87C2077.24 1583.09 2050.43 1615.76 2016.03 1638.75C1981.63 1661.73 1941.19 1674 1899.81 1674M1690.62 1464.81H1899.81V1674M1481.44 1674C1453.97 1674 1426.76 1679.41 1401.39 1689.92C1376.01 1700.44 1352.94 1715.84 1333.52 1735.27C1314.09 1754.69 1298.69 1777.76 1288.17 1803.14C1277.66 1828.51 1272.25 1855.72 1272.25 1883.19H1481.44M1481.44 1674V1883.19M1481.44 1883.19H1690.62C1690.62 1910.66 1685.21 1937.86 1674.7 1963.24C1664.19 1988.62 1648.78 2011.68 1629.36 2031.11C1609.93 2050.53 1586.87 2065.94 1561.49 2076.45C1536.11 2086.96 1508.91 2092.38 1481.44 2092.38M1481.44 1883.19V2092.38M1899.81 1674C1927.28 1674 1954.49 1679.41 1979.87 1689.92C2005.25 1700.44 2028.31 1715.84 2047.73 1735.27C2067.16 1754.69 2082.56 1777.76 2093.08 1803.14C2103.59 1828.51 2109 1855.72 2109 1883.19C2109 1910.66 2103.59 1937.86 2093.08 1963.24C2082.56 1988.62 2067.16 2011.68 2047.73 2031.11C2028.31 2050.53 2005.25 2065.94 1979.87 2076.45C1954.49 2086.96 1927.28 2092.37 1899.81 2092.38V1674ZM1481.44 2092.38C1453.97 2092.38 1426.76 2097.79 1401.39 2108.3C1376.01 2118.81 1352.94 2134.22 1333.52 2153.64C1314.09 2173.07 1298.69 2196.13 1288.17 2221.51M2109 209.688C2109 168.314 2121.27 127.87 2144.25 93.469C2167.24 59.069 2199.91 32.256 2238.14 16.424C2276.36 0.591 2318.42 -3.552 2359 4.52C2399.58 12.591 2436.85 32.514 2466.11 61.77C2495.36 91.025 2515.28 128.299 2523.36 168.877C2531.43 209.456 2527.28 251.516 2511.45 289.74C2495.62 327.964 2468.81 360.635 2434.41 383.621C2400.01 406.606 2359.56 418.875 2318.19 418.875M2109 209.688H2318.19V418.875M2318.19 418.875C2290.72 418.875 2263.51 424.286 2238.14 434.799C2212.76 445.311 2189.69 460.72 2170.27 480.145C2150.84 499.57 2135.44 522.63 2124.92 548.01C2114.41 573.39 2109 600.592 2109 628.063C2109 655.533 2114.41 682.735 2124.92 708.115C2135.44 733.495 2150.84 756.556 2170.27 775.98C2189.69 795.405 2212.76 810.814 2238.14 821.327C2263.51 831.839 2290.72 837.25 2318.19 837.25V418.875ZM2109 1046.44C2109 1073.91 2114.41 1101.11 2124.92 1126.49C2135.44 1151.87 2150.84 1174.93 2170.27 1194.36C2189.69 1213.78 2212.76 1229.19 2238.14 1239.7C2263.51 1250.21 2290.72 1255.63 2318.19 1255.62M2109 1046.44H2527.38M2318.19 1255.62C2345.66 1255.62 2372.86 1250.21 2398.24 1239.7C2423.62 1229.19 2446.68 1213.78 2466.11 1194.36C2485.53 1174.93 2500.94 1151.87 2511.45 1126.49C2521.96 1101.11 2527.38 1073.91 2527.38 1046.44M2318.19 1255.62C2290.72 1255.62 2263.51 1261.04 2238.14 1271.55C2212.76 1282.06 2189.69 1297.47 2170.27 1316.89C2150.84 1336.32 2135.44 1359.38 2124.92 1384.76C2114.41 1410.14 2109 1437.34 2109 1464.81H2318.19M2318.19 1255.62V1464.81M2527.38 1046.44C2527.38 1005.06 2539.64 964.62 2562.63 930.219C2585.62 895.818 2618.29 869.006 2656.51 853.173C2694.73 837.341 2736.79 833.198 2777.37 841.27M2527.38 1046.44H2736.56V1255.62M2073.75 2185.34C2050.76 2150.94 2018.09 2124.13 1979.87 2108.3C1941.64 2092.47 1899.58 2088.32 1859 2096.39C1818.42 2104.47 1781.15 2124.39 1751.89 2153.64M2318.19 1464.81V1674C2345.66 1674 2372.86 1668.59 2398.24 1658.08C2423.62 1647.56 2446.68 1632.16 2466.11 1612.73C2485.53 1593.31 2500.94 1570.24 2511.45 1544.87C2521.96 1519.49 2527.38 1492.28 2527.38 1464.81M2318.19 1464.81H2527.38M2736.56 1255.62C2709.09 1255.62 2681.89 1261.04 2656.51 1271.55C2631.13 1282.06 2608.07 1297.47 2588.64 1316.89C2569.22 1336.32 2553.81 1359.38 2543.3 1384.76C2532.79 1410.14 2527.37 1437.34 2527.38 1464.81M2736.56 1255.62V1674C2709.09 1674 2681.89 1668.59 2656.51 1658.08C2631.13 1647.56 2608.07 1632.16 2588.64 1612.73C2569.22 1593.31 2553.81 1570.24 2543.3 1544.87C2532.79 1519.49 2527.38 1492.28 2527.38 1464.81M2527.38 1883.19C2527.38 1841.81 2515.11 1801.37 2492.12 1766.97C2469.13 1732.57 2436.46 1705.76 2398.24 1689.92C2360.02 1674.09 2317.96 1669.95 2277.38 1678.02C2236.8 1686.09 2199.52 1706.01 2170.27 1735.27C2141.01 1764.53 2121.09 1801.8 2113.02 1842.38C2104.95 1882.96 2109.09 1925.02 2124.92 1963.24C2140.76 2001.46 2167.57 2034.13 2201.97 2057.12C2236.37 2080.11 2276.81 2092.38 2318.19 2092.38V1883.19H2527.38ZM2527.38 1883.19C2527.38 1841.81 2539.64 1801.37 2562.63 1766.97C2585.62 1732.57 2618.29 1705.76 2656.51 1689.92C2694.73 1674.09 2736.79 1669.95 2777.37 1678.02M2527.38 1883.19H2736.56V2092.38M2466.11 2153.64C2436.85 2124.39 2399.58 2104.47 2359 2096.39C2318.42 2088.32 2276.36 2092.47 2238.14 2108.3C2199.91 2124.13 2167.24 2150.94 2144.25 2185.34M2527.38 209.688C2527.38 237.158 2532.79 264.36 2543.3 289.74C2553.81 315.12 2569.22 338.181 2588.64 357.605C2608.07 377.03 2631.13 392.439 2656.51 402.952C2681.89 413.464 2709.09 418.875 2736.56 418.875M2736.56 418.875C2709.09 418.875 2681.89 424.286 2656.51 434.799C2631.13 445.311 2608.07 460.72 2588.64 480.145C2569.22 499.57 2553.81 522.63 2543.3 548.01C2532.79 573.39 2527.37 600.592 2527.38 628.063H2736.56M2736.56 418.875V628.063M2736.56 628.063V837.25" stroke="#343434" stroke-miterlimit="10" stroke-dasharray="3 3"/>
</svg>
