<svg width="82" height="81" viewBox="0 0 82 81" fill="none" xmlns="http://www.w3.org/2000/svg">
<path d="M40.5166 77.625C39.2229 77.625 37.9291 77.5406 36.6354 77.3719C35.3416 77.2031 34.0479 76.9781 32.7541 76.6969C27.8041 80.3531 22.3619 81.6609 16.4275 80.6203C10.4932 79.5797 5.95097 76.4156 2.80097 71.1281C0.269723 66.9656 -0.545902 62.4938 0.354098 57.7125C1.2541 52.9313 3.41972 48.9094 6.85097 45.6469V45.3938C3.36347 42.1875 1.19785 38.2359 0.354098 33.5391C-0.489652 28.8422 0.297848 24.4125 2.7166 20.25C4.79785 16.7063 7.6666 14.0203 11.3228 12.1922C14.9791 10.3641 18.8322 9.73125 22.8822 10.2938C24.6822 7.0875 27.1432 4.57031 30.265 2.74219C33.3869 0.914063 36.8041 0 40.5166 0C44.2291 0 47.6463 0.914063 50.7682 2.74219C53.89 4.57031 56.351 7.0875 58.151 10.2938C62.201 9.73125 66.0541 10.3641 69.7104 12.1922C73.3666 14.0203 76.2354 16.7063 78.3166 20.25C80.7354 24.4125 81.5229 28.8422 80.6791 33.5391C79.8354 38.2359 77.6697 42.1875 74.1822 45.3938V45.6469C77.6135 48.9094 79.7791 52.9313 80.6791 57.7125C81.5791 62.4938 80.7635 66.9656 78.2322 71.1281C75.0822 76.4156 70.54 79.5797 64.6057 80.6203C58.6713 81.6609 53.2291 80.3531 48.2791 76.6969C46.9854 76.9781 45.6916 77.2031 44.3979 77.3719C43.1041 77.5406 41.8104 77.625 40.5166 77.625ZM40.5166 70.875C48.0541 70.875 54.4385 68.2594 59.6697 63.0281C64.901 57.7969 67.5166 51.4125 67.5166 43.875C67.5166 42.2438 67.39 40.6828 67.1369 39.1922C66.8838 37.7016 66.5041 36.2531 65.9979 34.8469C64.3666 35.9719 62.5666 36.8438 60.5979 37.4625C58.6291 38.0813 56.576 38.3906 54.4385 38.3906C48.701 38.3906 43.8213 36.3797 39.7994 32.3578C35.7775 28.3359 33.7666 23.4563 33.7666 17.7188C27.9166 19.1813 23.0791 22.3313 19.2541 27.1688C15.4291 32.0063 13.5166 37.575 13.5166 43.875C13.5166 51.4125 16.1322 57.7969 21.3635 63.0281C26.5947 68.2594 32.9791 70.875 40.5166 70.875ZM30.3916 51.4688C29.2104 51.4688 28.2119 51.0609 27.3963 50.2453C26.5807 49.4297 26.1729 48.4313 26.1729 47.25C26.1729 46.0688 26.5807 45.0703 27.3963 44.2547C28.2119 43.4391 29.2104 43.0313 30.3916 43.0313C31.5729 43.0313 32.5713 43.4391 33.3869 44.2547C34.2025 45.0703 34.6104 46.0688 34.6104 47.25C34.6104 48.4313 34.2025 49.4297 33.3869 50.2453C32.5713 51.0609 31.5729 51.4688 30.3916 51.4688ZM50.6416 51.4688C49.4604 51.4688 48.4619 51.0609 47.6463 50.2453C46.8307 49.4297 46.4229 48.4313 46.4229 47.25C46.4229 46.0688 46.8307 45.0703 47.6463 44.2547C48.4619 43.4391 49.4604 43.0313 50.6416 43.0313C51.8229 43.0313 52.8213 43.4391 53.6369 44.2547C54.4525 45.0703 54.8604 46.0688 54.8604 47.25C54.8604 48.4313 54.4525 49.4297 53.6369 50.2453C52.8213 51.0609 51.8229 51.4688 50.6416 51.4688Z" fill="url(#paint0_linear_1487_101)"/>
<g filter="url(#filter0_b_1487_101)">
<path d="M57.0508 21C62.8498 21 67.5508 16.299 67.5508 10.5C67.5508 4.70101 62.8498 0 57.0508 0C51.2518 0 46.5508 4.70101 46.5508 10.5C46.5508 16.299 51.2518 21 57.0508 21Z" fill="url(#paint1_linear_1487_101)"/>
</g>
<defs>
<filter id="filter0_b_1487_101" x="42.5508" y="-4" width="29" height="29" filterUnits="userSpaceOnUse" color-interpolation-filters="sRGB">
<feFlood flood-opacity="0" result="BackgroundImageFix"/>
<feGaussianBlur in="BackgroundImageFix" stdDeviation="2"/>
<feComposite in2="SourceAlpha" operator="in" result="effect1_backgroundBlur_1487_101"/>
<feBlend mode="normal" in="SourceGraphic" in2="effect1_backgroundBlur_1487_101" result="shape"/>
</filter>
<linearGradient id="paint0_linear_1487_101" x1="30.9833" y1="80.9662" x2="30.9833" y2="3.68026" gradientUnits="userSpaceOnUse">
<stop stop-color="#A3ADC2" stop-opacity="0.7"/>
<stop offset="1" stop-color="#A3ADC2"/>
</linearGradient>
<linearGradient id="paint1_linear_1487_101" x1="57.0508" y1="0" x2="57.0508" y2="21" gradientUnits="userSpaceOnUse">
<stop stop-color="#DADEE7"/>
<stop offset="1" stop-color="#DADEE7" stop-opacity="0.7"/>
</linearGradient>
</defs>
</svg>
