<svg width="84" height="81" viewBox="0 0 84 81" fill="none" xmlns="http://www.w3.org/2000/svg">
<path d="M41.008 80.924C28.8798 79.1117 19.261 74.4243 12.1514 66.8616C5.04177 59.2989 0.999061 49.0005 0.023234 35.9662C-0.046468 35.1995 0.0406595 34.5199 0.284616 33.9274C0.528573 33.335 0.859657 32.8296 1.27787 32.4114C1.69608 31.9932 2.20142 31.6795 2.79389 31.4704C3.38635 31.2613 4.0311 31.2265 4.72811 31.3659C17.4836 33.1084 27.3115 38.0224 34.212 46.1078C41.1125 54.1933 44.9461 64.3 45.7129 76.4282C45.7826 77.0555 45.6954 77.6654 45.4515 78.2579C45.2075 78.8503 44.8416 79.3557 44.3537 79.7739C43.9355 80.1921 43.4301 80.5232 42.8377 80.7671C42.2452 81.0111 41.6353 81.0634 41.008 80.924ZM41.6353 42.0303C40.6595 40.4968 38.4116 38.2489 34.8916 35.2866C31.3717 32.3243 28.3919 30.3552 25.9524 29.3794C26.51 25.8943 27.9214 21.4856 30.1867 16.1534C32.4521 10.8212 35.153 5.99437 38.2896 1.67285C38.7078 1.11523 39.2132 0.697019 39.8056 0.418212C40.3981 0.139404 41.008 0 41.6353 0C42.2626 0 42.8551 0.139404 43.4127 0.418212C43.9703 0.697019 44.4582 1.15008 44.8764 1.7774C48.013 6.16862 50.7488 10.9781 53.0838 16.2057C55.4188 21.4333 56.8303 25.8246 57.3182 29.3794C54.5999 30.634 51.5678 32.6728 48.2221 35.4957C44.8764 38.3186 42.6808 40.4968 41.6353 42.0303ZM53.9725 77.8919C53.8331 73.6401 53.1884 68.8132 52.0383 63.4113C50.8882 58.0094 49.0934 53.3568 46.6538 49.4535C49.651 44.8532 54.0945 40.8802 59.9843 37.5345C65.8741 34.1888 72.095 32.1326 78.647 31.3659C79.344 31.2265 79.9714 31.2787 80.529 31.5227C81.0866 31.7667 81.5745 32.0977 81.9927 32.516C82.4109 32.9342 82.742 33.4221 82.986 33.9797C83.2299 34.5373 83.3171 35.1646 83.2474 35.8617C82.6897 47.0837 79.6403 56.1972 74.099 63.2022C68.5577 70.2073 61.8489 75.1038 53.9725 77.8919Z" fill="url(#paint0_linear_1487_98)"/>
<g filter="url(#filter0_b_1487_98)">
<path d="M59.7056 42C65.5046 42 70.2056 37.299 70.2056 31.5C70.2056 25.701 65.5046 21 59.7056 21C53.9066 21 49.2056 25.701 49.2056 31.5C49.2056 37.299 53.9066 42 59.7056 42Z" fill="url(#paint1_linear_1487_98)"/>
</g>
<defs>
<filter id="filter0_b_1487_98" x="45.2056" y="17" width="29" height="29" filterUnits="userSpaceOnUse" color-interpolation-filters="sRGB">
<feFlood flood-opacity="0" result="BackgroundImageFix"/>
<feGaussianBlur in="BackgroundImageFix" stdDeviation="2"/>
<feComposite in2="SourceAlpha" operator="in" result="effect1_backgroundBlur_1487_98"/>
<feBlend mode="normal" in="SourceGraphic" in2="effect1_backgroundBlur_1487_98" result="shape"/>
</filter>
<linearGradient id="paint0_linear_1487_98" x1="31.8388" y1="81" x2="31.8388" y2="3.6818" gradientUnits="userSpaceOnUse">
<stop stop-color="#A3ADC2" stop-opacity="0.7"/>
<stop offset="1" stop-color="#A3ADC2"/>
</linearGradient>
<linearGradient id="paint1_linear_1487_98" x1="59.7056" y1="21" x2="59.7056" y2="42" gradientUnits="userSpaceOnUse">
<stop stop-color="#DADEE7"/>
<stop offset="1" stop-color="#DADEE7" stop-opacity="0.7"/>
</linearGradient>
</defs>
</svg>
