<svg width="90" height="81" viewBox="0 0 90 81" fill="none" xmlns="http://www.w3.org/2000/svg">
<path d="M9 68C6.6625 68 4.66146 67.1677 2.99688 65.5031C1.33229 63.8385 0.5 61.8375 0.5 59.5V8.5C0.5 6.1625 1.33229 4.16146 2.99688 2.49688C4.66146 0.832292 6.6625 0 9 0H37.3688C38.5729 0 39.5823 0.407292 40.3969 1.22188C41.2115 2.03646 41.6188 3.04583 41.6188 4.25C41.6188 5.45417 42.026 6.46354 42.8406 7.27813C43.6552 8.09271 44.6646 8.5 45.8688 8.5H55.75C51.075 8.5 47.0729 10.1646 43.7438 13.4938C40.4146 16.8229 38.75 20.825 38.75 25.5V46.75C38.75 49.0875 39.0333 51.4073 39.6 53.7094C40.1667 56.0115 40.9458 58.1896 41.9375 60.2438C42.8583 62.0854 42.8938 63.8385 42.0438 65.5031C41.1938 67.1677 39.8479 68 38.0063 68H9ZM72.75 80.75C70.4125 80.75 68.4115 79.9177 66.7469 78.2531C65.0823 76.5885 64.25 74.5875 64.25 72.25V67.575C59.3625 66.5833 55.3073 64.1573 52.0844 60.2969C48.8615 56.4365 47.25 51.9208 47.25 46.75V25.5C47.25 23.1625 48.0646 21.1615 49.6938 19.4969C51.3229 17.8323 53.3417 17 55.75 17H81.25C83.5875 17 85.5885 17.8323 87.2531 19.4969C88.9177 21.1615 89.75 23.1625 89.75 25.5V46.75C89.75 51.9208 88.1385 56.4365 84.9156 60.2969C81.6927 64.1573 77.6375 66.5833 72.75 67.575V72.25H81.25C82.4542 72.25 83.4635 72.6573 84.2781 73.4719C85.0927 74.2865 85.5 75.2958 85.5 76.5C85.5 77.7042 85.0927 78.7135 84.2781 79.5281C83.4635 80.3427 82.4542 80.75 81.25 80.75H72.75ZM75.9375 42.5H81.25V25.5H55.75V34H58.9375C61.275 34 63.4885 34.5313 65.5781 35.5938C67.6677 36.6563 69.4208 38.1083 70.8375 39.95C71.4042 40.8 72.1479 41.4375 73.0688 41.8625C73.9896 42.2875 74.9458 42.5 75.9375 42.5ZM34.5 29.75C35.7042 29.75 36.7135 29.3427 37.5281 28.5281C38.3427 27.7135 38.75 26.7042 38.75 25.5C38.75 24.2958 38.3427 23.2865 37.5281 22.4719C36.7135 21.6573 35.7042 21.25 34.5 21.25H21.75C20.5458 21.25 19.5365 21.6573 18.7219 22.4719C17.9073 23.2865 17.5 24.2958 17.5 25.5C17.5 26.7042 17.9073 27.7135 18.7219 28.5281C19.5365 29.3427 20.5458 29.75 21.75 29.75H34.5ZM34.5 46.75C35.7042 46.75 36.7135 46.3427 37.5281 45.5281C38.3427 44.7135 38.75 43.7042 38.75 42.5C38.75 41.2958 38.3427 40.2865 37.5281 39.4719C36.7135 38.6573 35.7042 38.25 34.5 38.25H21.75C20.5458 38.25 19.5365 38.6573 18.7219 39.4719C17.9073 40.2865 17.5 41.2958 17.5 42.5C17.5 43.7042 17.9073 44.7135 18.7219 45.5281C19.5365 46.3427 20.5458 46.75 21.75 46.75H34.5Z" fill="url(#paint0_linear_1487_100)"/>
<g filter="url(#filter0_b_1487_100)">
<path d="M53.5 25C59.299 25 64 20.299 64 14.5C64 8.70101 59.299 4 53.5 4C47.701 4 43 8.70101 43 14.5C43 20.299 47.701 25 53.5 25Z" fill="url(#paint1_linear_1487_100)"/>
</g>
<defs>
<filter id="filter0_b_1487_100" x="39" y="0" width="29" height="29" filterUnits="userSpaceOnUse" color-interpolation-filters="sRGB">
<feFlood flood-opacity="0" result="BackgroundImageFix"/>
<feGaussianBlur in="BackgroundImageFix" stdDeviation="2"/>
<feComposite in2="SourceAlpha" operator="in" result="effect1_backgroundBlur_1487_100"/>
<feBlend mode="normal" in="SourceGraphic" in2="effect1_backgroundBlur_1487_100" result="shape"/>
</filter>
<linearGradient id="paint0_linear_1487_100" x1="34.625" y1="80.75" x2="34.625" y2="3.67043" gradientUnits="userSpaceOnUse">
<stop stop-color="#A3ADC2" stop-opacity="0.7"/>
<stop offset="1" stop-color="#A3ADC2"/>
</linearGradient>
<linearGradient id="paint1_linear_1487_100" x1="53.5" y1="4" x2="53.5" y2="25" gradientUnits="userSpaceOnUse">
<stop stop-color="#DADEE7"/>
<stop offset="1" stop-color="#DADEE7" stop-opacity="0.7"/>
</linearGradient>
</defs>
</svg>
