<svg width="3754" height="2716" viewBox="0 0 3754 2716" fill="none" xmlns="http://www.w3.org/2000/svg">
<rect x="5.68357" y="5.68357" width="3742.63" height="2704.63" rx="256.708" fill="white" fill-opacity="0.37" stroke="white" stroke-width="11.3671"/>
<path d="M312.5 1348C312.5 1259.91 383.911 1188.5 472 1188.5H3293C3381.09 1188.5 3452.5 1259.91 3452.5 1348V2216C3452.5 2304.09 3381.09 2375.5 3293 2375.5H472C383.911 2375.5 312.5 2304.09 312.5 2216V1348Z" fill="white"/>
<path d="M312.5 1348C312.5 1259.91 383.911 1188.5 472 1188.5H3293C3381.09 1188.5 3452.5 1259.91 3452.5 1348V2216C3452.5 2304.09 3381.09 2375.5 3293 2375.5H472C383.911 2375.5 312.5 2304.09 312.5 2216V1348Z" stroke="#F3F3F3" stroke-width="41"/>
<rect x="535.75" y="1557.12" width="827.86" height="114.517" rx="46.545" fill="#F4F5F7"/>
<rect x="535.75" y="1955.36" width="827.86" height="114.517" rx="46.545" fill="#F4F5F7"/>
<rect x="2192.61" y="1545.48" width="827.888" height="114.517" rx="46.545" fill="#F4F5F7"/>
<rect x="2310" y="1967" width="710.492" height="114.517" rx="46.545" fill="#F4F5F7"/>
<rect x="312.5" y="334.5" width="3140" height="646" rx="129.5" fill="white"/>
<rect x="312.5" y="334.5" width="3140" height="646" rx="129.5" stroke="#F4F5F7" stroke-width="41"/>
<rect x="502" y="559.57" width="202" height="195.86" rx="97.93" fill="#F0F7F6"/>
<path d="M565 657.31L576.956 675.366C580.417 680.593 587.778 681.383 592.269 677.01L641 629.57" stroke="#01511E" stroke-width="15.96" stroke-linecap="round"/>
<path d="M784 657.5H1156" stroke="#01511E" stroke-width="11" stroke-linecap="square"/>
<rect x="1236" y="559.57" width="202" height="195.86" rx="97.93" fill="#F0F7F6"/>
<path d="M1299 657.31L1310.96 675.366C1314.42 680.593 1321.78 681.383 1326.27 677.01L1375 629.57" stroke="#01511E" stroke-width="15.96" stroke-linecap="round"/>
<path d="M1539 657.5H1911" stroke="#01511E" stroke-width="11" stroke-linecap="square"/>
<rect x="2012" y="559.57" width="202" height="195.86" rx="97.93" fill="#F0F7F6"/>
<path d="M2075 657.31L2086.96 675.366C2090.42 680.593 2097.78 681.383 2102.27 677.01L2151 629.57" stroke="#01511E" stroke-width="15.96" stroke-linecap="round"/>
<path d="M2299 657.5H2671" stroke="#01511E" stroke-width="11" stroke-linecap="square"/>
<path d="M2916.61 494.832C2932.8 464.564 2976.2 464.564 2992.39 494.832C3002.05 512.899 3023.13 521.629 3042.73 515.687C3075.58 505.732 3106.27 536.416 3096.31 569.266C3090.37 588.875 3099.1 609.95 3117.17 619.614C3147.44 635.803 3147.44 679.197 3117.17 695.386C3099.1 705.05 3090.37 726.125 3096.31 745.734C3106.27 778.584 3075.58 809.268 3042.73 799.313C3023.13 793.371 3002.05 802.101 2992.39 820.168C2976.2 850.436 2932.8 850.436 2916.61 820.168C2906.95 802.101 2885.87 793.371 2866.27 799.313C2833.42 809.268 2802.73 778.584 2812.69 745.734C2818.63 726.125 2809.9 705.05 2791.83 695.386C2761.56 679.197 2761.56 635.803 2791.83 619.614C2809.9 609.95 2818.63 588.875 2812.69 569.266C2802.73 536.416 2833.42 505.732 2866.27 515.687C2885.87 521.629 2906.95 512.899 2916.61 494.832Z" fill="#01511E"/>
<path d="M2906 656L2928.88 683.461C2932.69 688.024 2939.6 688.286 2943.74 684.024L3002 624" stroke="white" stroke-width="15.96" stroke-linecap="round"/>
<rect x="1802" y="971" width="1103.12" height="209.284" rx="104.642" fill="#009C3E"/>
<path d="M1896.73 1092V1083.78H1930.94V1092H1896.73ZM1882.25 1110.64L1909.34 1039.37H1918.55L1945.85 1110.64H1936.42L1912.63 1046.17H1915.26L1891.46 1110.64H1882.25ZM2003.87 1090.03C2003.36 1094.56 2001.89 1098.47 1999.48 1101.76C1997.14 1104.98 1994.18 1107.46 1990.6 1109.22C1987.02 1110.9 1983.14 1111.74 1978.98 1111.74C1974.3 1111.74 1969.91 1110.61 1965.82 1108.34C1961.73 1106.07 1958.4 1102.82 1955.84 1098.58C1953.36 1094.27 1952.11 1089.19 1952.11 1083.34C1952.11 1077.49 1953.36 1072.45 1955.84 1068.21C1958.4 1063.9 1961.73 1060.57 1965.82 1058.23C1969.91 1055.89 1974.3 1054.72 1978.98 1054.72C1983.14 1054.72 1986.98 1055.6 1990.49 1057.35C1994.07 1059.11 1997.03 1061.59 1999.37 1064.81C2001.78 1068.03 2003.28 1071.86 2003.87 1076.32H1995.86C1994.62 1072.16 1992.46 1068.9 1989.39 1066.56C1986.32 1064.15 1982.85 1062.94 1978.98 1062.94C1975.83 1062.94 1972.87 1063.75 1970.1 1065.36C1967.32 1066.97 1965.09 1069.3 1963.41 1072.37C1961.73 1075.37 1960.89 1079.03 1960.89 1083.34C1960.89 1087.58 1961.73 1091.23 1963.41 1094.3C1965.09 1097.3 1967.28 1099.6 1969.99 1101.21C1972.76 1102.75 1975.76 1103.52 1978.98 1103.52C1983.44 1103.52 1987.06 1102.35 1989.83 1100.01C1992.68 1097.59 1994.73 1094.27 1995.97 1090.03H2003.87ZM2011.2 1055.82H2043.44V1064.04H2011.2V1055.82ZM2022.94 1041.56H2031.71V1110.64H2022.94V1041.56ZM2064.66 1033.89V1044.52H2053.26V1033.89H2064.66ZM2054.57 1055.82H2063.34V1110.64H2054.57V1055.82ZM2099.49 1103.08H2096.86L2113.63 1055.82H2123.17L2102.34 1110.64H2094.12L2073.39 1055.82H2082.93L2099.49 1103.08ZM2169.72 1092.99H2177.94C2177.36 1096.57 2176.04 1099.79 2173.99 1102.64C2172.02 1105.42 2169.39 1107.65 2166.1 1109.33C2162.88 1110.93 2159.16 1111.74 2154.92 1111.74C2149.8 1111.74 2145.19 1110.53 2141.1 1108.12C2137.01 1105.64 2133.75 1102.27 2131.34 1098.03C2129 1093.72 2127.83 1088.82 2127.83 1083.34C2127.83 1077.86 2128.96 1072.96 2131.23 1068.65C2133.57 1064.33 2136.75 1060.93 2140.77 1058.45C2144.79 1055.96 2149.32 1054.72 2154.37 1054.72C2159.7 1054.72 2164.2 1055.93 2167.85 1058.34C2171.58 1060.68 2174.32 1064.15 2176.08 1068.76C2177.91 1073.29 2178.64 1078.88 2178.27 1085.53H2136.6C2136.97 1089.11 2137.96 1092.26 2139.56 1094.96C2141.17 1097.67 2143.29 1099.79 2145.92 1101.32C2148.56 1102.78 2151.55 1103.52 2154.92 1103.52C2158.64 1103.52 2161.79 1102.57 2164.35 1100.66C2166.98 1098.69 2168.77 1096.13 2169.72 1092.99ZM2154.7 1062.94C2150.16 1062.94 2146.36 1064.26 2143.29 1066.89C2140.22 1069.52 2138.18 1073.11 2137.15 1077.64H2169.28C2168.99 1072.81 2167.42 1069.16 2164.56 1066.67C2161.79 1064.19 2158.5 1062.94 2154.7 1062.94ZM2221.05 1085.42V1077.2H2243.42C2247.8 1077.2 2251.35 1075.85 2254.05 1073.14C2256.83 1070.36 2258.22 1066.78 2258.22 1062.4C2258.22 1057.86 2256.83 1054.28 2254.05 1051.65C2251.35 1048.95 2247.8 1047.59 2243.42 1047.59H2222.8V1110.64H2214.03V1039.37H2243.42C2246.71 1039.37 2249.78 1039.88 2252.63 1040.91C2255.48 1041.93 2257.96 1043.43 2260.08 1045.4C2262.28 1047.37 2263.96 1049.79 2265.13 1052.64C2266.37 1055.49 2266.99 1058.74 2266.99 1062.4C2266.99 1066.05 2266.37 1069.3 2265.13 1072.16C2263.96 1075.01 2262.28 1077.42 2260.08 1079.39C2257.96 1081.37 2255.48 1082.86 2252.63 1083.89C2249.78 1084.91 2246.71 1085.42 2243.42 1085.42H2221.05ZM2297.68 1111.74C2293.37 1111.74 2289.39 1110.53 2285.73 1108.12C2282.15 1105.64 2279.26 1102.27 2277.07 1098.03C2274.95 1093.72 2273.89 1088.82 2273.89 1083.34C2273.89 1077.86 2274.99 1072.96 2277.18 1068.65C2279.37 1064.33 2282.33 1060.93 2286.06 1058.45C2289.86 1055.96 2294.1 1054.72 2298.78 1054.72C2303.9 1054.72 2307.77 1056.04 2310.4 1058.67C2313.11 1061.23 2314.93 1064.66 2315.89 1068.98C2316.91 1073.29 2317.42 1078.08 2317.42 1083.34C2317.42 1086.12 2317.13 1089.15 2316.54 1092.44C2315.96 1095.66 2314.93 1098.76 2313.47 1101.76C2312.08 1104.68 2310.11 1107.1 2307.55 1109C2304.99 1110.83 2301.7 1111.74 2297.68 1111.74ZM2299.88 1103.41C2303.6 1103.41 2306.67 1102.49 2309.09 1100.66C2311.57 1098.84 2313.4 1096.42 2314.57 1093.43C2315.74 1090.36 2316.32 1086.99 2316.32 1083.34C2316.32 1079.32 2315.7 1075.81 2314.46 1072.81C2313.29 1069.74 2311.46 1067.37 2308.98 1065.69C2306.56 1063.93 2303.53 1063.05 2299.88 1063.05C2294.39 1063.05 2290.15 1064.99 2287.16 1068.87C2284.16 1072.67 2282.66 1077.49 2282.66 1083.34C2282.66 1087.21 2283.39 1090.69 2284.85 1093.76C2286.39 1096.75 2288.44 1099.13 2290.99 1100.88C2293.63 1102.57 2296.59 1103.41 2299.88 1103.41ZM2316.32 1055.82H2325.1V1110.64H2317.09C2317.09 1110.64 2317.02 1109.98 2316.87 1108.67C2316.8 1107.35 2316.69 1105.82 2316.54 1104.06C2316.4 1102.31 2316.32 1100.85 2316.32 1099.68V1055.82ZM2339.39 1055.82H2348.16V1110.64H2339.39V1055.82ZM2365.7 1064.04C2361.97 1064.04 2358.83 1064.99 2356.27 1066.89C2353.79 1068.72 2351.81 1070.99 2350.35 1073.69C2348.96 1076.32 2348.05 1078.88 2347.61 1081.37L2347.5 1075.01C2347.5 1074.35 2347.65 1073.25 2347.94 1071.72C2348.23 1070.18 2348.78 1068.46 2349.58 1066.56C2350.39 1064.59 2351.45 1062.73 2352.76 1060.97C2354.15 1059.14 2355.91 1057.65 2358.03 1056.48C2360.15 1055.31 2362.71 1054.72 2365.7 1054.72V1064.04ZM2371.74 1055.82H2403.98V1064.04H2371.74V1055.82ZM2383.47 1041.56H2392.25V1110.64H2383.47V1041.56ZM2425.2 1033.89V1044.52H2413.79V1033.89H2425.2ZM2415.11 1055.82H2423.88V1110.64H2415.11V1055.82ZM2487.55 1090.03C2487.04 1094.56 2485.58 1098.47 2483.16 1101.76C2480.82 1104.98 2477.86 1107.46 2474.28 1109.22C2470.7 1110.9 2466.83 1111.74 2462.66 1111.74C2457.98 1111.74 2453.59 1110.61 2449.5 1108.34C2445.41 1106.07 2442.08 1102.82 2439.52 1098.58C2437.04 1094.27 2435.79 1089.19 2435.79 1083.34C2435.79 1077.49 2437.04 1072.45 2439.52 1068.21C2442.08 1063.9 2445.41 1060.57 2449.5 1058.23C2453.59 1055.89 2457.98 1054.72 2462.66 1054.72C2466.83 1054.72 2470.66 1055.6 2474.17 1057.35C2477.75 1059.11 2480.71 1061.59 2483.05 1064.81C2485.47 1068.03 2486.96 1071.86 2487.55 1076.32H2479.54C2478.3 1072.16 2476.15 1068.9 2473.08 1066.56C2470 1064.15 2466.53 1062.94 2462.66 1062.94C2459.52 1062.94 2456.55 1063.75 2453.78 1065.36C2451 1066.97 2448.77 1069.3 2447.09 1072.37C2445.41 1075.37 2444.57 1079.03 2444.57 1083.34C2444.57 1087.58 2445.41 1091.23 2447.09 1094.3C2448.77 1097.3 2450.96 1099.6 2453.67 1101.21C2456.44 1102.75 2459.44 1103.52 2462.66 1103.52C2467.12 1103.52 2470.74 1102.35 2473.51 1100.01C2476.36 1097.59 2478.41 1094.27 2479.65 1090.03H2487.55ZM2509.58 1033.89V1044.52H2498.17V1033.89H2509.58ZM2499.49 1055.82H2508.26V1110.64H2499.49V1055.82ZM2550.66 1111.74C2546.64 1111.74 2543.35 1110.83 2540.79 1109C2538.23 1107.1 2536.22 1104.68 2534.76 1101.76C2533.37 1098.76 2532.38 1095.66 2531.8 1092.44C2531.21 1089.15 2530.92 1086.12 2530.92 1083.34C2530.92 1079.39 2531.17 1075.7 2531.69 1072.27C2532.27 1068.83 2533.26 1065.8 2534.65 1063.16C2536.04 1060.53 2538.01 1058.49 2540.57 1057.02C2543.2 1055.49 2546.56 1054.72 2550.66 1054.72C2555.04 1054.72 2559.03 1055.96 2562.61 1058.45C2566.19 1060.93 2569.04 1064.33 2571.16 1068.65C2573.35 1072.96 2574.45 1077.86 2574.45 1083.34C2574.45 1088.82 2573.35 1093.72 2571.16 1098.03C2568.97 1102.27 2566.04 1105.64 2562.39 1108.12C2558.81 1110.53 2554.9 1111.74 2550.66 1111.74ZM2548.46 1103.41C2551.83 1103.41 2554.79 1102.57 2557.34 1100.88C2559.98 1099.13 2562.02 1096.75 2563.49 1093.76C2564.95 1090.69 2565.68 1087.21 2565.68 1083.34C2565.68 1077.49 2564.18 1072.67 2561.18 1068.87C2558.19 1064.99 2553.95 1063.05 2548.46 1063.05C2545.25 1063.05 2542.4 1063.93 2539.91 1065.69C2537.42 1067.37 2535.49 1069.74 2534.1 1072.81C2532.71 1075.81 2532.02 1079.32 2532.02 1083.34C2532.02 1086.99 2532.6 1090.36 2533.77 1093.43C2535.01 1096.42 2536.84 1098.84 2539.25 1100.66C2541.66 1102.49 2544.73 1103.41 2548.46 1103.41ZM2523.24 1055.82H2531.69L2532.02 1067.33V1132.57H2523.24V1055.82ZM2606.39 1111.74C2602.08 1111.74 2598.1 1110.53 2594.44 1108.12C2590.86 1105.64 2587.97 1102.27 2585.78 1098.03C2583.66 1093.72 2582.6 1088.82 2582.6 1083.34C2582.6 1077.86 2583.7 1072.96 2585.89 1068.65C2588.08 1064.33 2591.04 1060.93 2594.77 1058.45C2598.57 1055.96 2602.81 1054.72 2607.49 1054.72C2612.61 1054.72 2616.48 1056.04 2619.11 1058.67C2621.82 1061.23 2623.65 1064.66 2624.6 1068.98C2625.62 1073.29 2626.13 1078.08 2626.13 1083.34C2626.13 1086.12 2625.84 1089.15 2625.25 1092.44C2624.67 1095.66 2623.65 1098.76 2622.18 1101.76C2620.8 1104.68 2618.82 1107.1 2616.26 1109C2613.7 1110.83 2610.42 1111.74 2606.39 1111.74ZM2608.59 1103.41C2612.32 1103.41 2615.39 1102.49 2617.8 1100.66C2620.28 1098.84 2622.11 1096.42 2623.28 1093.43C2624.45 1090.36 2625.04 1086.99 2625.04 1083.34C2625.04 1079.32 2624.41 1075.81 2623.17 1072.81C2622 1069.74 2620.17 1067.37 2617.69 1065.69C2615.28 1063.93 2612.24 1063.05 2608.59 1063.05C2603.11 1063.05 2598.87 1064.99 2595.87 1068.87C2592.87 1072.67 2591.37 1077.49 2591.37 1083.34C2591.37 1087.21 2592.1 1090.69 2593.57 1093.76C2595.1 1096.75 2597.15 1099.13 2599.71 1100.88C2602.34 1102.57 2605.3 1103.41 2608.59 1103.41ZM2625.04 1055.82H2633.81V1110.64H2625.8C2625.8 1110.64 2625.73 1109.98 2625.58 1108.67C2625.51 1107.35 2625.4 1105.82 2625.25 1104.06C2625.11 1102.31 2625.04 1100.85 2625.04 1099.68V1055.82ZM2644.26 1055.82H2676.5V1064.04H2644.26V1055.82ZM2655.99 1041.56H2664.77V1110.64H2655.99V1041.56ZM2697.72 1033.89V1044.52H2686.31V1033.89H2697.72ZM2687.63 1055.82H2696.4V1110.64H2687.63V1055.82ZM2735.18 1111.74C2730.5 1111.74 2726.11 1110.61 2722.02 1108.34C2717.93 1106.07 2714.6 1102.82 2712.04 1098.58C2709.56 1094.27 2708.31 1089.19 2708.31 1083.34C2708.31 1077.49 2709.56 1072.45 2712.04 1068.21C2714.6 1063.9 2717.93 1060.57 2722.02 1058.23C2726.11 1055.89 2730.5 1054.72 2735.18 1054.72C2739.86 1054.72 2744.21 1055.89 2748.23 1058.23C2752.32 1060.57 2755.61 1063.9 2758.09 1068.21C2760.58 1072.45 2761.82 1077.49 2761.82 1083.34C2761.82 1089.19 2760.58 1094.27 2758.09 1098.58C2755.61 1102.82 2752.32 1106.07 2748.23 1108.34C2744.21 1110.61 2739.86 1111.74 2735.18 1111.74ZM2735.18 1103.52C2738.25 1103.52 2741.13 1102.75 2743.84 1101.21C2746.54 1099.68 2748.74 1097.41 2750.42 1094.41C2752.17 1091.34 2753.05 1087.65 2753.05 1083.34C2753.05 1079.03 2752.17 1075.37 2750.42 1072.37C2748.74 1069.3 2746.54 1066.97 2743.84 1065.36C2741.13 1063.75 2738.25 1062.94 2735.18 1062.94C2732.11 1062.94 2729.18 1063.75 2726.41 1065.36C2723.7 1066.89 2721.47 1069.19 2719.72 1072.27C2717.96 1075.26 2717.08 1078.95 2717.08 1083.34C2717.08 1087.65 2717.93 1091.34 2719.61 1094.41C2721.36 1097.41 2723.63 1099.68 2726.41 1101.21C2729.18 1102.75 2732.11 1103.52 2735.18 1103.52ZM2772.95 1055.82H2781.73V1110.64H2772.95V1055.82ZM2800.59 1054.72C2803.51 1054.72 2806.14 1055.16 2808.48 1056.04C2810.82 1056.91 2812.79 1058.19 2814.4 1059.87C2816.01 1061.56 2817.25 1063.6 2818.13 1066.02C2819.01 1068.35 2819.45 1071.02 2819.45 1074.02V1110.64H2810.67V1076.21C2810.67 1071.97 2809.69 1068.79 2807.71 1066.67C2805.74 1064.55 2802.78 1063.49 2798.83 1063.49C2795.83 1063.49 2793.06 1064.26 2790.5 1065.8C2787.94 1067.33 2785.82 1069.45 2784.14 1072.16C2782.53 1074.79 2781.54 1077.86 2781.18 1081.37L2781.07 1075.01C2781.43 1071.94 2782.16 1069.16 2783.26 1066.67C2784.43 1064.19 2785.86 1062.07 2787.54 1060.31C2789.29 1058.49 2791.27 1057.1 2793.46 1056.15C2795.72 1055.2 2798.1 1054.72 2800.59 1054.72Z" fill="white"/>
<path d="M2960.7 794.922C2960.32 790.628 2955.08 788.75 2952.06 791.822L2839.11 906.588C2836.1 909.644 2838.02 914.821 2842.3 915.172L2907.97 920.575C2909.73 920.72 2911.43 921.328 2912.88 922.337L2967.01 959.918C2970.53 962.363 2975.31 959.589 2974.93 955.319L2960.7 794.922Z" fill="#009C3E" stroke="white" stroke-width="5"/>
</svg>
