<svg width="89" height="81" viewBox="0 0 89 81" fill="none" xmlns="http://www.w3.org/2000/svg">
<path d="M63.7664 81C62.6189 81 61.657 80.6119 60.8807 79.8356C60.1045 79.0594 59.7164 78.0975 59.7164 76.95C59.7164 75.8025 60.1045 74.8406 60.8807 74.0644C61.657 73.2881 62.6189 72.9 63.7664 72.9H75.9164V64.8H63.7664C62.6189 64.8 61.657 64.4119 60.8807 63.6356C60.1045 62.8594 59.7164 61.8975 59.7164 60.75C59.7164 59.6025 60.1045 58.6406 60.8807 57.8644C61.657 57.0881 62.6189 56.7 63.7664 56.7H75.9164V48.6H63.7664C62.6189 48.6 61.657 48.2119 60.8807 47.4356C60.1045 46.6594 59.7164 45.6975 59.7164 44.55C59.7164 43.4025 60.1045 42.4406 60.8807 41.6644C61.657 40.8881 62.6189 40.5 63.7664 40.5H75.9164V32.4H63.7664C62.6189 32.4 61.657 32.0119 60.8807 31.2356C60.1045 30.4594 59.7164 29.4975 59.7164 28.35C59.7164 27.2025 60.1045 26.2406 60.8807 25.4644C61.657 24.6881 62.6189 24.3 63.7664 24.3H75.9164V16.2H63.7664C62.6189 16.2 61.657 15.8119 60.8807 15.0356C60.1045 14.2594 59.7164 13.2975 59.7164 12.15C59.7164 11.0025 60.1045 10.0406 60.8807 9.26438C61.657 8.48813 62.6189 8.1 63.7664 8.1H79.9664C82.1939 8.1 84.1007 8.89312 85.687 10.4794C87.2732 12.0656 88.0664 13.9725 88.0664 16.2V72.9C88.0664 75.1275 87.2732 77.0344 85.687 78.6206C84.1007 80.2069 82.1939 81 79.9664 81H63.7664ZM13.2426 75.6338L1.29511 42.7275C0.62011 40.905 0.603235 39.0825 1.24448 37.26C1.88573 35.4375 3.05011 34.02 4.73761 33.0075L19.2164 24.3V4.05C19.2164 2.9025 19.6045 1.94062 20.3807 1.16438C21.157 0.388125 22.1189 0 23.2664 0H31.3664C32.5139 0 33.4757 0.388125 34.252 1.16438C35.0282 1.94062 35.4164 2.9025 35.4164 4.05V24.3L49.8951 33.0075C51.5826 34.02 52.747 35.4375 53.3882 37.26C54.0295 39.0825 54.0126 40.905 53.3376 42.7275L41.3901 75.6338C40.8501 77.2538 39.8882 78.5531 38.5045 79.5319C37.1207 80.5106 35.5514 81 33.7964 81H20.8364C19.0814 81 17.512 80.5106 16.1282 79.5319C14.7445 78.5531 13.7826 77.2538 13.2426 75.6338Z" fill="url(#paint0_linear_1487_99)"/>
<g filter="url(#filter0_b_1487_99)">
<path d="M57.5 46C63.299 46 68 41.299 68 35.5C68 29.701 63.299 25 57.5 25C51.701 25 47 29.701 47 35.5C47 41.299 51.701 46 57.5 46Z" fill="url(#paint1_linear_1487_99)"/>
</g>
<defs>
<filter id="filter0_b_1487_99" x="43" y="21" width="29" height="29" filterUnits="userSpaceOnUse" color-interpolation-filters="sRGB">
<feFlood flood-opacity="0" result="BackgroundImageFix"/>
<feGaussianBlur in="BackgroundImageFix" stdDeviation="2"/>
<feComposite in2="SourceAlpha" operator="in" result="effect1_backgroundBlur_1487_99"/>
<feBlend mode="normal" in="SourceGraphic" in2="effect1_backgroundBlur_1487_99" result="shape"/>
</filter>
<linearGradient id="paint0_linear_1487_99" x1="34.1517" y1="81" x2="34.1517" y2="3.6818" gradientUnits="userSpaceOnUse">
<stop stop-color="#A3ADC2" stop-opacity="0.7"/>
<stop offset="1" stop-color="#A3ADC2"/>
</linearGradient>
<linearGradient id="paint1_linear_1487_99" x1="57.5" y1="25" x2="57.5" y2="46" gradientUnits="userSpaceOnUse">
<stop stop-color="#DADEE7"/>
<stop offset="1" stop-color="#DADEE7" stop-opacity="0.7"/>
</linearGradient>
</defs>
</svg>
