<svg width="3754" height="2716" viewBox="0 0 3754 2716" fill="none" xmlns="http://www.w3.org/2000/svg">
<rect x="5.68357" y="5.68357" width="3742.63" height="2704.63" rx="256.708" fill="white" fill-opacity="0.37" stroke="white" stroke-width="11.3671"/>
<rect x="326" y="305" width="3117" height="2107" rx="170" fill="white" stroke="#F3F3F3" stroke-width="40"/>
<path d="M346 1074L3423 1074" stroke="#909090"/>
<path d="M894.022 746.425C888.832 746.425 884.154 745.621 879.987 744.013C875.893 742.405 872.421 740.029 869.57 736.886C866.719 733.743 864.526 729.905 862.991 725.373C861.529 720.767 860.798 715.541 860.798 709.693C860.798 703.772 861.566 698.472 863.101 693.793C864.636 689.042 866.829 684.985 869.68 681.622C872.531 678.26 875.967 675.701 879.987 673.947C884.008 672.119 888.503 671.206 893.474 671.206C897.275 671.206 900.784 671.754 904 672.85C907.217 673.874 909.995 675.409 912.334 677.456C914.746 679.429 916.61 681.842 917.926 684.692C919.242 687.543 919.936 690.723 920.009 694.232L910.47 696.644C910.543 692.916 909.775 689.846 908.167 687.434C906.559 684.948 904.439 683.084 901.807 681.842C899.176 680.599 896.325 679.978 893.255 679.978C890.404 679.978 887.626 680.562 884.921 681.732C882.29 682.828 879.951 684.583 877.904 686.995C875.857 689.334 874.212 692.368 872.969 696.096C871.8 699.751 871.215 704.174 871.215 709.364C871.215 716.016 872.165 721.389 874.066 725.482C876.04 729.576 878.781 732.61 882.29 734.583C885.799 736.484 889.856 737.434 894.461 737.434C898.92 737.434 902.502 736.63 905.207 735.022C907.911 733.341 909.922 731.038 911.237 728.114C912.553 725.117 913.321 721.681 913.54 717.807L922.531 719.452C922.458 723.107 921.873 726.579 920.777 729.868C919.68 733.158 917.999 736.045 915.733 738.531C913.467 741.016 910.543 742.953 906.961 744.342C903.379 745.731 899.066 746.425 894.022 746.425ZM966.064 746.425C960.801 746.425 956.159 745.548 952.138 743.794C948.191 742.039 944.828 739.517 942.051 736.228C939.346 732.938 937.299 729.028 935.91 724.495C934.521 719.89 933.827 714.737 933.827 709.035C933.827 700.701 935.216 693.757 937.994 688.201C940.771 682.573 944.609 678.333 949.507 675.482C954.405 672.631 959.96 671.206 966.174 671.206C971.071 671.206 975.494 672.046 979.441 673.727C983.389 675.409 986.751 677.894 989.529 681.184C992.38 684.473 994.573 688.494 996.108 693.245C997.643 697.924 998.411 703.26 998.411 709.254C998.411 714.883 997.68 720 996.218 724.605C994.829 729.137 992.746 733.048 989.968 736.338C987.263 739.554 983.9 742.039 979.88 743.794C975.933 745.548 971.327 746.425 966.064 746.425ZM966.174 737.763C970.852 737.763 974.799 736.667 978.016 734.474C981.305 732.207 983.791 728.991 985.472 724.824C987.226 720.585 988.104 715.468 988.104 709.473C988.104 703.26 987.226 697.997 985.472 693.684C983.718 689.298 981.196 685.935 977.906 683.596C974.617 681.257 970.633 680.087 965.954 680.087C961.495 680.087 957.621 681.22 954.331 683.486C951.042 685.752 948.52 689.042 946.766 693.355C945.011 697.668 944.134 702.967 944.134 709.254C944.134 713.786 944.609 717.843 945.559 721.425C946.583 724.934 948.008 727.931 949.836 730.417C951.736 732.829 954.039 734.656 956.744 735.899C959.522 737.142 962.665 737.763 966.174 737.763ZM1014.63 745V672.631H1028L1066.16 731.732H1067.04L1066.27 672.631H1076.03V745H1063.86L1024.71 684.583H1023.73L1024.5 745H1014.63ZM1110.29 745V672.631H1120.38V745H1110.29ZM1088.25 681.403V672.631H1142.42V681.403H1088.25ZM1141.05 745L1166.49 672.631H1181.18L1206.62 745H1195.77L1174.49 681.074H1173.18L1151.91 745H1141.05ZM1153.11 728.772V721.096H1195.77V728.772H1153.11ZM1247.07 746.425C1241.88 746.425 1237.2 745.621 1233.03 744.013C1228.94 742.405 1225.46 740.029 1222.61 736.886C1219.76 733.743 1217.57 729.905 1216.03 725.373C1214.57 720.767 1213.84 715.541 1213.84 709.693C1213.84 703.772 1214.61 698.472 1216.14 693.793C1217.68 689.042 1219.87 684.985 1222.72 681.622C1225.57 678.26 1229.01 675.701 1233.03 673.947C1237.05 672.119 1241.55 671.206 1246.52 671.206C1250.32 671.206 1253.83 671.754 1257.04 672.85C1260.26 673.874 1263.04 675.409 1265.38 677.456C1267.79 679.429 1269.65 681.842 1270.97 684.692C1272.28 687.543 1272.98 690.723 1273.05 694.232L1263.51 696.644C1263.59 692.916 1262.82 689.846 1261.21 687.434C1259.6 684.948 1257.48 683.084 1254.85 681.842C1252.22 680.599 1249.37 679.978 1246.3 679.978C1243.45 679.978 1240.67 680.562 1237.96 681.732C1235.33 682.828 1232.99 684.583 1230.95 686.995C1228.9 689.334 1227.26 692.368 1226.01 696.096C1224.84 699.751 1224.26 704.174 1224.26 709.364C1224.26 716.016 1225.21 721.389 1227.11 725.482C1229.08 729.576 1231.82 732.61 1235.33 734.583C1238.84 736.484 1242.9 737.434 1247.5 737.434C1251.96 737.434 1255.54 736.63 1258.25 735.022C1260.95 733.341 1262.96 731.038 1264.28 728.114C1265.6 725.117 1266.36 721.681 1266.58 717.807L1275.57 719.452C1275.5 723.107 1274.92 726.579 1273.82 729.868C1272.72 733.158 1271.04 736.045 1268.78 738.531C1266.51 741.016 1263.59 742.953 1260 744.342C1256.42 745.731 1252.11 746.425 1247.07 746.425ZM1304 745V672.631H1314.08V745H1304ZM1281.96 681.403V672.631H1336.12V681.403H1281.96ZM1405.74 746.425C1401.79 746.425 1398.21 745.987 1394.99 745.11C1391.78 744.306 1388.96 743.099 1386.55 741.491C1384.14 739.81 1382.09 737.8 1380.41 735.46C1378.8 733.121 1377.56 730.453 1376.68 727.456C1375.88 724.459 1375.47 721.133 1375.47 717.478V672.631H1385.56V717.149C1385.56 721.535 1386.33 725.226 1387.86 728.224C1389.4 731.148 1391.67 733.377 1394.66 734.912C1397.66 736.447 1401.35 737.215 1405.74 737.215C1410.27 737.215 1414 736.484 1416.92 735.022C1419.92 733.487 1422.15 731.221 1423.61 728.224C1425.15 725.226 1425.91 721.535 1425.91 717.149V672.631H1435.89V717.478C1435.89 726.688 1433.33 733.816 1428.22 738.86C1423.1 743.903 1415.61 746.425 1405.74 746.425ZM1479.63 746.425C1474.8 746.425 1470.56 745.914 1466.91 744.89C1463.33 743.867 1460.29 742.368 1457.81 740.395C1455.39 738.348 1453.6 735.862 1452.43 732.938C1451.26 730.014 1450.75 726.615 1450.9 722.741L1460 720.767C1459.71 724.569 1460.33 727.748 1461.86 730.307C1463.4 732.865 1465.74 734.803 1468.88 736.118C1472.02 737.361 1475.72 737.982 1479.96 737.982C1484.05 737.982 1487.52 737.471 1490.37 736.447C1493.22 735.424 1495.34 733.998 1496.73 732.171C1498.19 730.343 1498.93 728.26 1498.93 725.921C1498.93 723.289 1498.08 721.206 1496.4 719.671C1494.72 718.136 1492.46 716.966 1489.61 716.162C1486.83 715.285 1483.72 714.481 1480.28 713.75C1476.92 713.019 1473.56 712.178 1470.2 711.228C1466.83 710.277 1463.8 709.071 1461.1 707.609C1458.46 706.074 1456.31 704.101 1454.63 701.688C1453.02 699.203 1452.21 696.06 1452.21 692.258C1452.21 687.945 1453.27 684.217 1455.39 681.074C1457.59 677.931 1460.66 675.518 1464.6 673.837C1468.55 672.083 1473.19 671.206 1478.53 671.206C1483.79 671.206 1488.47 672.046 1492.57 673.727C1496.73 675.409 1500.02 677.894 1502.43 681.184C1504.85 684.4 1506.13 688.384 1506.27 693.136L1496.84 695.438C1496.84 692.807 1496.37 690.504 1495.42 688.53C1494.54 686.483 1493.3 684.839 1491.69 683.596C1490.08 682.28 1488.14 681.293 1485.88 680.635C1483.61 679.904 1481.13 679.539 1478.42 679.539C1475.13 679.539 1472.24 680.051 1469.76 681.074C1467.27 682.097 1465.34 683.486 1463.95 685.241C1462.56 686.995 1461.86 689.078 1461.86 691.491C1461.86 694.342 1462.85 696.608 1464.82 698.289C1466.87 699.897 1469.5 701.177 1472.72 702.127C1475.94 703.077 1479.37 703.954 1483.03 704.758C1486.17 705.416 1489.24 706.22 1492.24 707.171C1495.31 708.048 1498.08 709.254 1500.57 710.789C1503.06 712.251 1505.03 714.188 1506.49 716.601C1507.95 719.013 1508.68 722.083 1508.68 725.811C1508.68 729.978 1507.59 733.596 1505.39 736.667C1503.27 739.737 1500.06 742.149 1495.75 743.903C1491.43 745.585 1486.06 746.425 1479.63 746.425Z" fill="#191919"/>
<rect x="1739" y="525" width="1408" height="368" rx="36" fill="#01511E"/>
<path d="M1898.52 745.987L1896.99 736.447C1897.79 736.593 1898.52 736.667 1899.18 736.667C1899.84 736.667 1900.42 736.667 1900.93 736.667C1904.88 736.667 1907.84 736.045 1909.82 734.803C1911.86 733.56 1913.25 731.696 1913.98 729.21C1914.71 726.652 1915.08 723.509 1915.08 719.78V672.631H1925.06V719.89C1925.06 725.153 1924.36 729.759 1922.97 733.706C1921.66 737.653 1919.36 740.724 1916.07 742.917C1912.78 745.037 1908.17 746.097 1902.25 746.097C1901.81 746.097 1901.3 746.097 1900.71 746.097C1900.13 746.097 1899.4 746.06 1898.52 745.987ZM1973.16 746.425C1967.89 746.425 1963.25 745.548 1959.23 743.794C1955.28 742.039 1951.92 739.517 1949.14 736.228C1946.44 732.938 1944.39 729.028 1943 724.495C1941.61 719.89 1940.92 714.737 1940.92 709.035C1940.92 700.701 1942.31 693.757 1945.09 688.201C1947.86 682.573 1951.7 678.333 1956.6 675.482C1961.5 672.631 1967.05 671.206 1973.27 671.206C1978.16 671.206 1982.59 672.046 1986.53 673.727C1990.48 675.409 1993.84 677.894 1996.62 681.184C1999.47 684.473 2001.66 688.494 2003.2 693.245C2004.74 697.924 2005.5 703.26 2005.5 709.254C2005.5 714.883 2004.77 720 2003.31 724.605C2001.92 729.137 1999.84 733.048 1997.06 736.338C1994.35 739.554 1990.99 742.039 1986.97 743.794C1983.02 745.548 1978.42 746.425 1973.16 746.425ZM1973.27 737.763C1977.94 737.763 1981.89 736.667 1985.11 734.474C1988.4 732.207 1990.88 728.991 1992.56 724.824C1994.32 720.585 1995.2 715.468 1995.2 709.473C1995.2 703.26 1994.32 697.997 1992.56 693.684C1990.81 689.298 1988.29 685.935 1985 683.596C1981.71 681.257 1977.72 680.087 1973.05 680.087C1968.59 680.087 1964.71 681.22 1961.42 683.486C1958.13 685.752 1955.61 689.042 1953.86 693.355C1952.1 697.668 1951.23 702.967 1951.23 709.254C1951.23 713.786 1951.7 717.843 1952.65 721.425C1953.67 724.934 1955.1 727.931 1956.93 730.417C1958.83 732.829 1961.13 734.656 1963.84 735.899C1966.61 737.142 1969.76 737.763 1973.27 737.763ZM2021.72 745V672.631H2031.92V745H2021.72ZM2050.74 745V672.631H2064.11L2102.27 731.732H2103.15L2102.38 672.631H2112.14V745H2099.97L2060.83 684.583H2059.84L2060.61 745H2050.74ZM2174.13 745V672.631H2184.22V745H2174.13ZM2152.09 681.403V672.631H2206.26V681.403H2152.09ZM2266.45 745V672.631H2276.54V745H2266.45ZM2218.42 745V672.631H2228.51V745H2218.42ZM2223.47 712.324V703.662H2270.51V712.324H2223.47ZM2295.31 745V672.631H2305.4V745H2295.31ZM2300.46 745V736.338H2346.08V745H2300.46ZM2300.46 712.105V703.991H2340.92V712.105H2300.46ZM2300.46 681.184V672.631H2345.97V681.184H2300.46ZM2387.5 745V672.631H2403.07L2427.09 734.474H2427.64L2451.54 672.631H2466.56V745H2457.02L2457.68 682.828H2456.8L2431.91 745H2422.04L2397.37 682.719H2396.5L2397.15 745H2387.5ZM2514.98 746.425C2509.72 746.425 2505.08 745.548 2501.06 743.794C2497.11 742.039 2493.75 739.517 2490.97 736.228C2488.26 732.938 2486.22 729.028 2484.83 724.495C2483.44 719.89 2482.74 714.737 2482.74 709.035C2482.74 700.701 2484.13 693.757 2486.91 688.201C2489.69 682.573 2493.53 678.333 2498.42 675.482C2503.32 672.631 2508.88 671.206 2515.09 671.206C2519.99 671.206 2524.41 672.046 2528.36 673.727C2532.31 675.409 2535.67 677.894 2538.45 681.184C2541.3 684.473 2543.49 688.494 2545.03 693.245C2546.56 697.924 2547.33 703.26 2547.33 709.254C2547.33 714.883 2546.6 720 2545.13 724.605C2543.75 729.137 2541.66 733.048 2538.88 736.338C2536.18 739.554 2532.82 742.039 2528.8 743.794C2524.85 745.548 2520.24 746.425 2514.98 746.425ZM2515.09 737.763C2519.77 737.763 2523.72 736.667 2526.93 734.474C2530.22 732.207 2532.71 728.991 2534.39 724.824C2536.14 720.585 2537.02 715.468 2537.02 709.473C2537.02 703.26 2536.14 697.997 2534.39 693.684C2532.63 689.298 2530.11 685.935 2526.82 683.596C2523.53 681.257 2519.55 680.087 2514.87 680.087C2510.41 680.087 2506.54 681.22 2503.25 683.486C2499.96 685.752 2497.44 689.042 2495.68 693.355C2493.93 697.668 2493.05 702.967 2493.05 709.254C2493.05 713.786 2493.53 717.843 2494.48 721.425C2495.5 724.934 2496.93 727.931 2498.75 730.417C2500.65 732.829 2502.96 734.656 2505.66 735.899C2508.44 737.142 2511.58 737.763 2515.09 737.763ZM2579.51 745L2554.51 672.631H2565.48L2586.2 736.009H2587.3L2608.24 672.631H2619.1L2593.88 745H2579.51ZM2631.86 745V672.631H2641.95V745H2631.86ZM2637.01 745V736.338H2682.63V745H2637.01ZM2637.01 712.105V703.991H2677.48V712.105H2637.01ZM2637.01 681.184V672.631H2682.52V681.184H2637.01ZM2696.32 745V672.631H2711.89L2735.91 734.474H2736.46L2760.36 672.631H2775.38V745H2765.84L2766.5 682.828H2765.62L2740.73 745H2730.86L2706.19 682.719H2705.31L2705.97 745H2696.32ZM2794.19 745V672.631H2804.28V745H2794.19ZM2799.35 745V736.338H2844.96V745H2799.35ZM2799.35 712.105V703.991H2839.81V712.105H2799.35ZM2799.35 681.184V672.631H2844.85V681.184H2799.35ZM2858.66 745V672.631H2872.03L2910.19 731.732H2911.07L2910.3 672.631H2920.06V745H2907.89L2868.74 684.583H2867.76L2868.53 745H2858.66ZM2954.32 745V672.631H2964.41V745H2954.32ZM2932.28 681.403V672.631H2986.45V681.403H2932.28Z" fill="white"/>
<rect x="2909" y="1029" width="334.12" height="209.284" rx="104.642" fill="#009C3E"/>
<path d="M3049.01 1097.37L3023.79 1144.19V1168.64H3015.02V1144.19L2989.8 1097.37H2999.67L3021.38 1138.49H3017.87L3039.14 1097.37H3049.01ZM3072.81 1169.74C3068.13 1169.74 3063.74 1168.61 3059.65 1166.34C3055.55 1164.07 3052.23 1160.82 3049.67 1156.58C3047.18 1152.27 3045.94 1147.19 3045.94 1141.34C3045.94 1135.49 3047.18 1130.45 3049.67 1126.21C3052.23 1121.89 3055.55 1118.57 3059.65 1116.23C3063.74 1113.89 3068.13 1112.72 3072.81 1112.72C3077.48 1112.72 3081.83 1113.89 3085.85 1116.23C3089.95 1118.57 3093.24 1121.89 3095.72 1126.21C3098.21 1130.45 3099.45 1135.49 3099.45 1141.34C3099.45 1147.19 3098.21 1152.27 3095.72 1156.58C3093.24 1160.82 3089.95 1164.07 3085.85 1166.34C3081.83 1168.61 3077.48 1169.74 3072.81 1169.74ZM3072.81 1161.51C3075.88 1161.51 3078.76 1160.75 3081.47 1159.21C3084.17 1157.68 3086.37 1155.41 3088.05 1152.41C3089.8 1149.34 3090.68 1145.65 3090.68 1141.34C3090.68 1137.03 3089.8 1133.37 3088.05 1130.37C3086.37 1127.3 3084.17 1124.96 3081.47 1123.36C3078.76 1121.75 3075.88 1120.94 3072.81 1120.94C3069.74 1120.94 3066.81 1121.75 3064.03 1123.36C3061.33 1124.89 3059.1 1127.19 3057.35 1130.26C3055.59 1133.26 3054.71 1136.95 3054.71 1141.34C3054.71 1145.65 3055.55 1149.34 3057.24 1152.41C3058.99 1155.41 3061.26 1157.68 3064.03 1159.21C3066.81 1160.75 3069.74 1161.51 3072.81 1161.51ZM3157.07 1168.64H3148.3V1113.82H3157.07V1168.64ZM3148.85 1143.09L3148.96 1146.16C3148.89 1147.04 3148.67 1148.39 3148.3 1150.22C3148.01 1152.05 3147.46 1154.1 3146.66 1156.36C3145.93 1158.55 3144.83 1160.67 3143.37 1162.72C3141.98 1164.77 3140.15 1166.45 3137.89 1167.76C3135.69 1169.08 3132.95 1169.74 3129.66 1169.74C3127.54 1169.74 3125.35 1169.41 3123.08 1168.75C3120.89 1168.17 3118.84 1167.18 3116.94 1165.79C3115.04 1164.33 3113.51 1162.32 3112.34 1159.76C3111.17 1157.2 3110.58 1154.02 3110.58 1150.22V1113.82H3119.35V1148.03C3119.35 1151.32 3119.87 1153.91 3120.89 1155.81C3121.99 1157.64 3123.45 1158.96 3125.28 1159.76C3127.1 1160.56 3129.15 1160.97 3131.42 1160.97C3135.14 1160.97 3138.25 1160.02 3140.74 1158.12C3143.22 1156.22 3145.12 1153.88 3146.44 1151.1C3147.75 1148.32 3148.56 1145.65 3148.85 1143.09Z" fill="white"/>
<path d="M2889.11 849.822L3002.06 964.588C3005.07 967.644 3003.15 972.821 2998.87 973.172L2933.2 978.575C2931.43 978.72 2929.74 979.328 2928.29 980.337L2874.16 1017.92C2870.63 1020.36 2865.86 1017.59 2866.24 1013.32L2880.47 852.922C2880.85 848.628 2886.08 846.75 2889.11 849.822Z" fill="#009C3E" stroke="white" stroke-width="5"/>
</svg>
