<svg width="309" height="407" viewBox="0 0 309 407" fill="none" xmlns="http://www.w3.org/2000/svg">
<g filter="url(#filter0_b_1500_2144)">
<rect width="309" height="407" rx="17.6122" fill="white" fill-opacity="0.14"/>
<rect x="0.5" y="0.5" width="308" height="406" rx="17.1122" stroke="white" stroke-opacity="0.29"/>
<circle cx="31.7647" cy="37.7647" r="11.7647" fill="#E82C2F"/>
<circle cx="64.0001" cy="37.7647" r="11.7647" fill="#FFC800"/>
<circle cx="96.2354" cy="37.7647" r="11.7647" fill="#43830B"/>
<rect x="20" y="79.5293" width="266" height="60" rx="12" fill="#FF7D1F"/>
<path d="M79.32 103.529C80.8 103.529 81.94 103.849 82.74 104.489C83.54 105.129 83.96 106.029 83.96 107.149C83.96 107.989 83.74 108.669 83.32 109.209C82.88 109.749 82.26 110.129 81.46 110.329C83.5 110.729 84.54 111.829 84.54 113.669C84.54 114.869 84.1 115.829 83.22 116.509C82.34 117.189 81.1 117.529 79.46 117.529H74.36V103.529H79.32ZM76.1 109.609H79.4C80.28 109.609 80.98 109.409 81.48 109.009C81.96 108.609 82.22 108.069 82.22 107.349C82.22 106.649 81.96 106.109 81.48 105.709C81 105.309 80.3 105.109 79.4 105.109H76.1V109.609ZM76.1 115.949H79.46C80.52 115.949 81.34 115.749 81.9 115.329C82.46 114.929 82.76 114.349 82.76 113.609C82.76 112.829 82.46 112.229 81.9 111.809C81.32 111.389 80.5 111.169 79.46 111.169H76.1V115.949ZM98.8009 114.189C98.2409 115.269 97.4409 116.129 96.4409 116.729C95.4209 117.349 94.2609 117.649 92.9809 117.649C91.6809 117.649 90.5209 117.349 89.5209 116.729C88.5009 116.129 87.7009 115.269 87.1409 114.189C86.5809 113.109 86.3009 111.889 86.3009 110.529C86.3009 109.169 86.5809 107.949 87.1409 106.869C87.7009 105.789 88.5009 104.949 89.5209 104.329C90.5209 103.729 91.6809 103.409 92.9809 103.409C94.2609 103.409 95.4209 103.729 96.4409 104.329C97.4409 104.949 98.2409 105.789 98.8009 106.869C99.3609 107.949 99.6609 109.169 99.6609 110.529C99.6609 111.889 99.3609 113.109 98.8009 114.189ZM88.7009 113.389C89.1009 114.229 89.6809 114.869 90.4209 115.349C91.1609 115.829 92.0209 116.049 92.9809 116.049C93.9409 116.049 94.7809 115.829 95.5209 115.349C96.2609 114.869 96.8409 114.229 97.2609 113.389C97.6609 112.549 97.8809 111.609 97.8809 110.529C97.8809 109.469 97.6609 108.529 97.2609 107.689C96.8409 106.849 96.2609 106.209 95.5209 105.729C94.7809 105.249 93.9409 105.009 92.9809 105.009C92.0209 105.009 91.1609 105.249 90.4209 105.729C89.6809 106.209 89.1009 106.849 88.7009 107.689C88.2809 108.529 88.0809 109.469 88.0809 110.529C88.0809 111.609 88.2809 112.549 88.7009 113.389ZM113.84 114.189C113.28 115.269 112.48 116.129 111.48 116.729C110.46 117.349 109.3 117.649 108.02 117.649C106.72 117.649 105.56 117.349 104.56 116.729C103.54 116.129 102.74 115.269 102.18 114.189C101.62 113.109 101.34 111.889 101.34 110.529C101.34 109.169 101.62 107.949 102.18 106.869C102.74 105.789 103.54 104.949 104.56 104.329C105.56 103.729 106.72 103.409 108.02 103.409C109.3 103.409 110.46 103.729 111.48 104.329C112.48 104.949 113.28 105.789 113.84 106.869C114.4 107.949 114.7 109.169 114.7 110.529C114.7 111.889 114.4 113.109 113.84 114.189ZM103.74 113.389C104.14 114.229 104.72 114.869 105.46 115.349C106.2 115.829 107.06 116.049 108.02 116.049C108.98 116.049 109.82 115.829 110.56 115.349C111.3 114.869 111.88 114.229 112.3 113.389C112.7 112.549 112.92 111.609 112.92 110.529C112.92 109.469 112.7 108.529 112.3 107.689C111.88 106.849 111.3 106.209 110.56 105.729C109.82 105.249 108.98 105.009 108.02 105.009C107.06 105.009 106.2 105.249 105.46 105.729C104.72 106.209 104.14 106.849 103.74 107.689C103.32 108.529 103.12 109.469 103.12 110.529C103.12 111.609 103.32 112.549 103.74 113.389ZM116.899 103.529H118.639V111.469L125.699 103.529H127.819L122.699 109.429L128.219 117.529H126.139L121.419 110.749L118.639 113.889V117.529H116.899V103.529ZM133.747 117.529L139.087 103.529H141.147L146.467 117.529H144.607L143.127 113.749H137.027L135.547 117.529H133.747ZM137.547 112.169H142.607L140.067 105.429L137.547 112.169ZM154.486 112.949C154.546 113.909 154.926 114.669 155.626 115.229C156.306 115.789 157.186 116.069 158.266 116.069C159.226 116.069 159.986 115.869 160.586 115.449C161.186 115.029 161.486 114.449 161.486 113.689C161.486 113.149 161.306 112.709 160.986 112.389C160.666 112.069 160.246 111.849 159.726 111.689C159.206 111.529 158.526 111.389 157.646 111.229C156.246 110.989 155.126 110.609 154.306 110.049C153.466 109.509 153.066 108.629 153.066 107.389C153.066 106.609 153.266 105.909 153.666 105.309C154.066 104.709 154.626 104.229 155.346 103.889C156.066 103.569 156.906 103.389 157.846 103.389C158.826 103.389 159.706 103.569 160.466 103.929C161.226 104.289 161.826 104.809 162.266 105.449C162.706 106.089 162.946 106.829 163.006 107.669H161.286C161.166 106.869 160.806 106.209 160.186 105.709C159.546 105.229 158.766 104.969 157.846 104.969C156.906 104.969 156.166 105.189 155.626 105.589C155.066 105.989 154.806 106.569 154.806 107.289C154.806 107.829 154.966 108.249 155.286 108.549C155.606 108.849 156.006 109.069 156.526 109.229C157.026 109.389 157.726 109.529 158.606 109.669C160.006 109.909 161.126 110.309 161.966 110.869C162.806 111.429 163.226 112.309 163.226 113.529C163.226 114.329 163.006 115.049 162.586 115.669C162.166 116.309 161.586 116.789 160.826 117.129C160.066 117.489 159.206 117.649 158.246 117.649C157.146 117.649 156.186 117.469 155.386 117.069C154.566 116.669 153.926 116.129 153.486 115.409C153.046 114.689 152.806 113.869 152.766 112.949H154.486ZM165.434 103.529H174.354V105.129H167.174V109.609H173.154V111.209H167.174V115.929H174.614V117.529H165.434V103.529ZM177.767 112.949C177.827 113.909 178.207 114.669 178.907 115.229C179.587 115.789 180.467 116.069 181.547 116.069C182.507 116.069 183.267 115.869 183.867 115.449C184.467 115.029 184.767 114.449 184.767 113.689C184.767 113.149 184.587 112.709 184.267 112.389C183.947 112.069 183.527 111.849 183.007 111.689C182.487 111.529 181.807 111.389 180.927 111.229C179.527 110.989 178.407 110.609 177.587 110.049C176.747 109.509 176.347 108.629 176.347 107.389C176.347 106.609 176.547 105.909 176.947 105.309C177.347 104.709 177.907 104.229 178.627 103.889C179.347 103.569 180.187 103.389 181.127 103.389C182.107 103.389 182.987 103.569 183.747 103.929C184.507 104.289 185.107 104.809 185.547 105.449C185.987 106.089 186.227 106.829 186.287 107.669H184.567C184.447 106.869 184.087 106.209 183.467 105.709C182.827 105.229 182.047 104.969 181.127 104.969C180.187 104.969 179.447 105.189 178.907 105.589C178.347 105.989 178.087 106.569 178.087 107.289C178.087 107.829 178.247 108.249 178.567 108.549C178.887 108.849 179.287 109.069 179.807 109.229C180.307 109.389 181.007 109.529 181.887 109.669C183.287 109.909 184.407 110.309 185.247 110.869C186.087 111.429 186.507 112.309 186.507 113.529C186.507 114.329 186.287 115.049 185.867 115.669C185.447 116.309 184.867 116.789 184.107 117.129C183.347 117.489 182.487 117.649 181.527 117.649C180.427 117.649 179.467 117.469 178.667 117.069C177.847 116.669 177.207 116.129 176.767 115.409C176.327 114.689 176.087 113.869 176.047 112.949H177.767ZM189.662 112.949C189.722 113.909 190.102 114.669 190.802 115.229C191.482 115.789 192.362 116.069 193.442 116.069C194.402 116.069 195.162 115.869 195.762 115.449C196.362 115.029 196.662 114.449 196.662 113.689C196.662 113.149 196.482 112.709 196.162 112.389C195.842 112.069 195.422 111.849 194.902 111.689C194.382 111.529 193.702 111.389 192.822 111.229C191.422 110.989 190.302 110.609 189.482 110.049C188.642 109.509 188.242 108.629 188.242 107.389C188.242 106.609 188.442 105.909 188.842 105.309C189.242 104.709 189.802 104.229 190.522 103.889C191.242 103.569 192.082 103.389 193.022 103.389C194.002 103.389 194.882 103.569 195.642 103.929C196.402 104.289 197.002 104.809 197.442 105.449C197.882 106.089 198.122 106.829 198.182 107.669H196.462C196.342 106.869 195.982 106.209 195.362 105.709C194.722 105.229 193.942 104.969 193.022 104.969C192.082 104.969 191.342 105.189 190.802 105.589C190.242 105.989 189.982 106.569 189.982 107.289C189.982 107.829 190.142 108.249 190.462 108.549C190.782 108.849 191.182 109.069 191.702 109.229C192.202 109.389 192.902 109.529 193.782 109.669C195.182 109.909 196.302 110.309 197.142 110.869C197.982 111.429 198.402 112.309 198.402 113.529C198.402 114.329 198.182 115.049 197.762 115.669C197.342 116.309 196.762 116.789 196.002 117.129C195.242 117.489 194.382 117.649 193.422 117.649C192.322 117.649 191.362 117.469 190.562 117.069C189.742 116.669 189.102 116.129 188.662 115.409C188.222 114.689 187.982 113.869 187.942 112.949H189.662ZM200.61 103.529H202.35V117.529H200.61V103.529ZM217.043 114.189C216.483 115.269 215.683 116.129 214.683 116.729C213.663 117.349 212.503 117.649 211.223 117.649C209.923 117.649 208.763 117.349 207.763 116.729C206.743 116.129 205.943 115.269 205.383 114.189C204.823 113.109 204.543 111.889 204.543 110.529C204.543 109.169 204.823 107.949 205.383 106.869C205.943 105.789 206.743 104.949 207.763 104.329C208.763 103.729 209.923 103.409 211.223 103.409C212.503 103.409 213.663 103.729 214.683 104.329C215.683 104.949 216.483 105.789 217.043 106.869C217.603 107.949 217.903 109.169 217.903 110.529C217.903 111.889 217.603 113.109 217.043 114.189ZM206.943 113.389C207.343 114.229 207.923 114.869 208.663 115.349C209.403 115.829 210.263 116.049 211.223 116.049C212.183 116.049 213.023 115.829 213.763 115.349C214.503 114.869 215.083 114.229 215.503 113.389C215.903 112.549 216.123 111.609 216.123 110.529C216.123 109.469 215.903 108.529 215.503 107.689C215.083 106.849 214.503 106.209 213.763 105.729C213.023 105.249 212.183 105.009 211.223 105.009C210.263 105.009 209.403 105.249 208.663 105.729C207.923 106.209 207.343 106.849 206.943 107.689C206.523 108.529 206.323 109.469 206.323 110.529C206.323 111.609 206.523 112.549 206.943 113.389ZM220.102 117.529V103.529H221.702L229.222 114.329V103.529H230.922V117.529H229.322L221.802 106.729V117.529H220.102Z" fill="white"/>
<g clip-path="url(#clip0_1500_2144)">
<rect x="20" y="154.529" width="266" height="229" rx="10" fill="white"/>
<mask id="path-9-inside-1_1500_2144" fill="white">
<path d="M20 154.529H286V265.529H20V154.529Z"/>
</mask>
<path d="M286 264.529H20V266.529H286V264.529Z" fill="#CAC4D0" fill-opacity="0.21" mask="url(#path-9-inside-1_1500_2144)"/>
<path d="M36.963 180.565C37.002 181.111 37.223 181.54 37.613 181.865C38.003 182.19 38.523 182.346 39.16 182.346C39.706 182.346 40.161 182.229 40.499 181.995C40.837 181.761 41.019 181.423 41.019 180.994C41.019 180.695 40.915 180.461 40.733 180.279C40.551 180.097 40.291 179.967 39.979 179.863C39.654 179.772 39.199 179.668 38.627 179.564C38.029 179.46 37.522 179.33 37.106 179.161C36.69 178.992 36.339 178.732 36.079 178.381C35.819 178.043 35.689 177.588 35.689 177.016C35.689 176.496 35.819 176.041 36.092 175.625C36.365 175.222 36.742 174.91 37.236 174.676C37.73 174.455 38.289 174.338 38.926 174.338C39.576 174.338 40.148 174.468 40.668 174.702C41.175 174.949 41.578 175.287 41.877 175.703C42.163 176.132 42.332 176.613 42.358 177.159H40.889C40.837 176.691 40.629 176.314 40.278 176.028C39.914 175.742 39.472 175.599 38.926 175.599C38.393 175.599 37.964 175.716 37.652 175.95C37.34 176.184 37.184 176.496 37.184 176.912C37.184 177.211 37.275 177.445 37.457 177.614C37.639 177.796 37.899 177.926 38.211 178.004C38.523 178.095 38.965 178.186 39.55 178.29C40.135 178.394 40.642 178.537 41.071 178.706C41.487 178.888 41.838 179.135 42.111 179.473C42.371 179.811 42.514 180.266 42.514 180.812C42.514 181.358 42.371 181.839 42.085 182.255C41.799 182.684 41.396 183.022 40.889 183.256C40.369 183.49 39.797 183.607 39.147 183.607C38.419 183.607 37.795 183.477 37.249 183.217C36.703 182.957 36.274 182.606 35.962 182.138C35.65 181.67 35.494 181.137 35.494 180.539L36.963 180.565ZM45.13 174.429H51.071V175.755H46.625V178.277H50.291V179.564H46.625V182.203H51.227V183.529H45.13V174.429ZM53.7552 183.529V174.429H55.2502V182.203H59.1632V183.529H53.7552ZM61.606 174.429H67.547V175.755H63.101V178.277H66.767V179.564H63.101V182.203H67.703V183.529H61.606V174.429ZM70.1339 176.561C70.4979 175.859 71.0049 175.326 71.6679 174.936C72.3309 174.546 73.1109 174.351 73.9949 174.351C74.6709 174.351 75.2949 174.481 75.8409 174.741C76.3869 175.001 76.8419 175.378 77.1929 175.859C77.5309 176.34 77.7519 176.899 77.8559 177.523H76.3609C76.2049 176.951 75.9189 176.496 75.5029 176.158C75.0739 175.833 74.5539 175.664 73.9299 175.664C73.3579 175.664 72.8639 175.807 72.4479 176.093C72.0189 176.379 71.6939 176.769 71.4729 177.263C71.2389 177.757 71.1349 178.329 71.1349 178.979C71.1349 179.629 71.2389 180.201 71.4729 180.695C71.6939 181.202 72.0189 181.592 72.4479 181.878C72.8639 182.164 73.3579 182.294 73.9299 182.294C74.5539 182.294 75.0739 182.138 75.4899 181.8C75.9059 181.475 76.1919 181.02 76.3479 180.435H77.8429C77.7389 181.085 77.5179 181.644 77.1799 182.112C76.8419 182.593 76.3999 182.957 75.8539 183.217C75.3079 183.477 74.6839 183.607 73.9949 183.607C73.1109 183.607 72.3309 183.425 71.6679 183.035C71.0049 182.658 70.4979 182.125 70.1339 181.423C69.7699 180.721 69.6009 179.915 69.6009 178.979C69.6009 178.069 69.7699 177.263 70.1339 176.561ZM79.4663 174.429H86.5773V175.755H83.7693V183.529H82.2743V175.755H79.4663V174.429ZM89.005 174.429H94.946V175.755H90.5V178.277H94.166V179.564H90.5V182.203H95.102V183.529H89.005V174.429ZM97.6302 174.429H100.529C101.452 174.429 102.258 174.624 102.96 175.001C103.649 175.391 104.182 175.924 104.559 176.6C104.923 177.289 105.118 178.082 105.118 178.979C105.118 179.876 104.923 180.669 104.559 181.358C104.182 182.047 103.649 182.58 102.96 182.957C102.258 183.347 101.452 183.529 100.529 183.529H97.6302V174.429ZM100.529 182.229C101.504 182.229 102.258 181.943 102.791 181.358C103.311 180.773 103.584 179.98 103.584 178.979C103.584 177.991 103.311 177.198 102.791 176.613C102.258 176.028 101.504 175.729 100.529 175.729H99.1252V182.229H100.529ZM111.626 183.529L115.032 174.429H116.813L120.206 183.529H118.607L117.749 181.28H114.018L113.173 183.529H111.626ZM114.434 180.006H117.333L115.877 176.041L114.434 180.006ZM127.066 174.429H129.965C130.888 174.429 131.694 174.624 132.396 175.001C133.085 175.391 133.618 175.924 133.995 176.6C134.359 177.289 134.554 178.082 134.554 178.979C134.554 179.876 134.359 180.669 133.995 181.358C133.618 182.047 133.085 182.58 132.396 182.957C131.694 183.347 130.888 183.529 129.965 183.529H127.066V174.429ZM129.965 182.229C130.94 182.229 131.694 181.943 132.227 181.358C132.747 180.773 133.02 179.98 133.02 178.979C133.02 177.991 132.747 177.198 132.227 176.613C131.694 176.028 130.94 175.729 129.965 175.729H128.561V182.229H129.965ZM136.042 183.529L139.448 174.429H141.229L144.622 183.529H143.023L142.165 181.28H138.434L137.589 183.529H136.042ZM138.85 180.006H141.749L140.293 176.041L138.85 180.006ZM145.04 174.429H152.151V175.755H149.343V183.529H147.848V175.755H145.04V174.429ZM154.579 174.429H160.52V175.755H156.074V178.277H159.74V179.564H156.074V182.203H160.676V183.529H154.579V174.429Z" fill="#9CA7BE"/>
<path d="M37.4 215.529H55.88V220.689H43.4V227.249H53.64V232.169H43.4V243.529H37.4V215.529ZM70.0269 222.969V228.089H67.7869C66.1869 228.089 64.9869 228.569 64.2669 229.529C63.5069 230.489 63.1469 231.809 63.1469 233.449V243.529H57.5069V222.969H62.6269L63.1469 226.049C63.7469 225.049 64.5069 224.289 65.4269 223.769C66.3069 223.249 67.5469 222.969 69.0669 222.969H70.0269ZM77.7059 215.329C78.3059 215.929 78.6259 216.689 78.6259 217.569C78.6259 218.489 78.3059 219.249 77.7059 219.849C77.0659 220.489 76.3059 220.769 75.3859 220.769C74.4259 220.769 73.6659 220.489 73.0259 219.849C72.3859 219.249 72.1059 218.489 72.1059 217.569C72.1059 216.689 72.3859 215.929 73.0259 215.329C73.6659 214.729 74.4259 214.409 75.3859 214.409C76.3059 214.409 77.0659 214.729 77.7059 215.329ZM72.5459 222.969H78.1859V243.529H72.5459V222.969ZM102.676 215.529V243.529H97.7563L97.1963 240.689C95.5963 242.769 93.4763 243.769 90.7963 243.769C88.9563 243.769 87.3563 243.369 85.9163 242.489C84.4763 241.609 83.3163 240.369 82.5163 238.769C81.7163 237.169 81.3163 235.329 81.3163 233.209C81.3163 231.129 81.7163 229.329 82.5163 227.729C83.3163 226.129 84.4763 224.929 85.9163 224.049C87.3563 223.169 88.9963 222.729 90.8363 222.729C93.4763 222.729 95.5563 223.689 97.0363 225.529V215.529H102.676ZM95.7563 237.569C96.6363 236.489 97.1163 235.049 97.1163 233.289C97.1163 231.529 96.6363 230.089 95.7563 228.969C94.8363 227.889 93.6363 227.329 92.1163 227.329C90.5963 227.329 89.3563 227.889 88.4363 228.969C87.5163 230.089 87.0763 231.489 87.0763 233.249C87.0763 235.009 87.5163 236.449 88.4363 237.529C89.3563 238.649 90.5963 239.169 92.1163 239.169C93.6363 239.169 94.8363 238.649 95.7563 237.569ZM126.848 238.769V243.529H123.968C121.368 243.529 120.088 242.409 120.168 240.169C119.408 241.369 118.488 242.249 117.408 242.849C116.288 243.489 114.968 243.769 113.448 243.769C111.128 243.769 109.288 243.249 107.888 242.209C106.488 241.169 105.808 239.649 105.808 237.729C105.808 235.569 106.608 233.889 108.208 232.689C109.808 231.489 112.168 230.889 115.248 230.889H119.328V229.889C119.328 228.969 118.968 228.249 118.288 227.689C117.568 227.129 116.648 226.849 115.488 226.849C114.448 226.849 113.568 227.089 112.928 227.529C112.248 228.009 111.848 228.609 111.728 229.369H106.288C106.448 227.289 107.408 225.649 109.088 224.489C110.768 223.329 112.968 222.729 115.768 222.729C118.648 222.729 120.888 223.369 122.488 224.649C124.088 225.929 124.888 227.809 124.888 230.209V237.449C124.888 237.969 124.968 238.329 125.208 238.489C125.408 238.689 125.728 238.769 126.208 238.769H126.848ZM119.328 234.649H115.208C114.008 234.649 113.088 234.889 112.448 235.369C111.808 235.849 111.488 236.489 111.488 237.329C111.488 238.049 111.728 238.649 112.288 239.049C112.848 239.489 113.568 239.689 114.528 239.689C115.968 239.689 117.128 239.289 118.008 238.449C118.848 237.609 119.288 236.489 119.328 235.049V234.649ZM132.327 222.969L137.327 237.729L142.207 222.969H148.247L139.127 246.449C138.647 247.729 138.167 248.689 137.767 249.409C137.327 250.129 136.767 250.649 136.127 251.009C135.487 251.369 134.647 251.529 133.607 251.529H128.127V246.769H131.247C131.967 246.769 132.487 246.649 132.807 246.409C133.127 246.169 133.407 245.729 133.727 245.009L134.247 243.649L126.327 222.969H132.327ZM169.965 230.289C171.325 229.209 172.325 228.209 172.965 227.289C173.605 226.409 173.925 225.409 173.925 224.329C173.925 222.969 173.485 221.929 172.685 221.209C171.885 220.489 170.805 220.089 169.445 220.089C168.125 220.089 167.045 220.529 166.245 221.409C165.445 222.289 165.045 223.489 165.045 224.969V225.409H159.245V224.649C159.245 222.889 159.645 221.289 160.485 219.849C161.325 218.409 162.525 217.289 164.085 216.489C165.605 215.689 167.405 215.249 169.445 215.249C172.725 215.249 175.245 216.049 177.045 217.649C178.845 219.249 179.765 221.409 179.765 224.089C179.765 226.009 179.285 227.689 178.325 229.089C177.365 230.489 175.925 231.969 173.965 233.569L167.685 238.689H179.885V243.529H159.365V239.089L169.965 230.289ZM202.492 231.289C203.612 232.409 204.212 233.889 204.212 235.729C204.212 237.329 203.732 238.769 202.852 239.969C201.972 241.169 200.692 242.129 199.052 242.769C197.372 243.449 195.452 243.769 193.292 243.769C189.932 243.769 187.292 242.929 185.372 241.249C183.412 239.569 182.452 237.209 182.452 234.209H188.172C188.172 235.769 188.692 237.009 189.732 237.889C190.732 238.809 192.012 239.249 193.612 239.249C194.972 239.249 196.092 238.889 196.972 238.169C197.852 237.449 198.332 236.489 198.332 235.249C198.332 234.129 197.892 233.249 197.012 232.609C196.132 231.969 194.852 231.649 193.212 231.649H190.452V227.049H192.892C194.412 227.049 195.612 226.729 196.452 226.049C197.292 225.369 197.732 224.449 197.732 223.289C197.732 222.209 197.332 221.369 196.572 220.729C195.772 220.129 194.772 219.809 193.532 219.809C192.172 219.809 191.052 220.209 190.172 220.929C189.292 221.689 188.812 222.689 188.812 223.969H183.172C183.172 221.289 184.092 219.169 185.932 217.609C187.772 216.089 190.212 215.289 193.292 215.289C196.492 215.289 199.012 215.969 200.812 217.329C202.612 218.689 203.532 220.529 203.532 222.769C203.532 224.449 203.012 225.769 202.012 226.809C201.012 227.849 199.692 228.569 198.052 228.969C199.852 229.409 201.332 230.169 202.492 231.289Z" fill="#002324"/>
<path d="M53.679 297.191C53.273 297.947 52.713 298.549 51.985 298.969C51.257 299.403 50.445 299.613 49.521 299.613C48.597 299.613 47.771 299.403 47.043 298.969C46.315 298.549 45.755 297.947 45.363 297.191C44.957 296.435 44.761 295.581 44.761 294.629C44.761 293.677 44.957 292.823 45.363 292.067C45.755 291.311 46.315 290.723 47.043 290.289C47.771 289.869 48.597 289.645 49.521 289.645C50.445 289.645 51.257 289.869 51.985 290.289C52.713 290.723 53.273 291.311 53.679 292.067C54.071 292.823 54.281 293.677 54.281 294.629C54.281 295.581 54.071 296.435 53.679 297.191ZM46.805 296.477C47.057 297.023 47.421 297.443 47.897 297.751C48.373 298.059 48.905 298.199 49.521 298.199C50.123 298.199 50.655 298.059 51.131 297.751C51.607 297.443 51.971 297.023 52.237 296.477C52.489 295.931 52.629 295.315 52.629 294.629C52.629 293.957 52.489 293.341 52.237 292.795C51.971 292.249 51.607 291.829 51.131 291.521C50.655 291.213 50.123 291.059 49.521 291.059C48.905 291.059 48.373 291.213 47.897 291.521C47.421 291.829 47.057 292.249 46.805 292.795C46.539 293.341 46.413 293.957 46.413 294.629C46.413 295.315 46.539 295.931 46.805 296.477ZM61.1697 298.913C60.5817 299.389 59.8397 299.613 58.9437 299.613C58.2297 299.613 57.5997 299.473 57.0677 299.165C56.5217 298.857 56.1017 298.423 55.8077 297.863C55.5137 297.303 55.3737 296.659 55.3737 295.931C55.3737 295.203 55.5137 294.573 55.8217 294.013C56.1157 293.467 56.5357 293.047 57.0817 292.739C57.6277 292.431 58.2577 292.277 58.9857 292.277C59.8817 292.277 60.6097 292.515 61.1837 292.991C61.7437 293.467 62.1077 294.097 62.2477 294.909H60.6937C60.5817 294.503 60.3857 294.181 60.0777 293.929C59.7697 293.691 59.3917 293.565 58.9437 293.565C58.3277 293.565 57.8377 293.789 57.4737 294.223C57.1097 294.671 56.9277 295.231 56.9277 295.931C56.9277 296.645 57.1097 297.219 57.4737 297.667C57.8377 298.115 58.3277 298.325 58.9437 298.325C59.4057 298.325 59.7977 298.213 60.1057 297.961C60.4137 297.709 60.6097 297.373 60.7077 296.953H62.2477C62.1077 297.793 61.7437 298.437 61.1697 298.913ZM64.022 293.691H62.776V292.361H64.022V290.359H65.548V292.361H67.27V293.691H65.548V297.429C65.548 297.709 65.604 297.919 65.716 298.031C65.828 298.143 66.01 298.199 66.29 298.199H67.438V299.529H65.982C65.296 299.529 64.792 299.375 64.484 299.053C64.176 298.745 64.022 298.255 64.022 297.583V293.691ZM69.669 299.165C69.109 298.857 68.689 298.437 68.381 297.877C68.073 297.317 67.933 296.673 67.933 295.945C67.933 295.231 68.073 294.601 68.381 294.041C68.689 293.481 69.109 293.047 69.669 292.739C70.229 292.431 70.859 292.277 71.587 292.277C72.301 292.277 72.931 292.431 73.491 292.739C74.051 293.047 74.471 293.481 74.779 294.041C75.087 294.601 75.241 295.231 75.241 295.945C75.241 296.673 75.087 297.317 74.779 297.877C74.471 298.437 74.051 298.857 73.491 299.165C72.931 299.473 72.301 299.613 71.587 299.613C70.859 299.613 70.229 299.473 69.669 299.165ZM73.113 297.667C73.505 297.219 73.701 296.645 73.701 295.945C73.701 295.245 73.505 294.685 73.113 294.237C72.721 293.789 72.217 293.565 71.587 293.565C70.943 293.565 70.439 293.789 70.061 294.237C69.669 294.685 69.487 295.245 69.487 295.945C69.487 296.645 69.669 297.219 70.061 297.667C70.439 298.115 70.943 298.325 71.587 298.325C72.217 298.325 72.721 298.115 73.113 297.667ZM82.1428 292.725C82.6468 293.019 83.0528 293.439 83.3468 293.985C83.6268 294.545 83.7808 295.189 83.7808 295.945C83.7808 296.673 83.6268 297.303 83.3468 297.863C83.0528 298.423 82.6468 298.843 82.1428 299.151C81.6248 299.459 81.0368 299.613 80.3928 299.613C79.8608 299.613 79.3988 299.515 79.0068 299.319C78.6148 299.123 78.2928 298.843 78.0548 298.493L77.8728 299.529H76.5568V289.729H78.0688V293.425C78.6288 292.669 79.4128 292.277 80.3928 292.277C81.0368 292.277 81.6248 292.431 82.1428 292.725ZM81.6528 297.681C82.0448 297.233 82.2408 296.659 82.2408 295.945C82.2408 295.245 82.0448 294.685 81.6528 294.237C81.2608 293.789 80.7568 293.565 80.1408 293.565C79.5108 293.565 79.0068 293.789 78.6288 294.223C78.2368 294.671 78.0548 295.231 78.0548 295.931C78.0548 296.645 78.2368 297.219 78.6288 297.667C79.0068 298.115 79.5108 298.339 80.1408 298.339C80.7568 298.339 81.2608 298.129 81.6528 297.681ZM85.2604 294.027C85.5544 293.467 85.9604 293.047 86.4924 292.739C87.0244 292.431 87.6264 292.277 88.3124 292.277C88.9984 292.277 89.6004 292.417 90.1324 292.697C90.6644 292.977 91.0704 293.383 91.3784 293.887C91.6864 294.405 91.8404 295.007 91.8544 295.693C91.8544 295.889 91.8404 296.071 91.8124 296.267H86.4084V296.351C86.4364 296.981 86.6324 297.471 86.9964 297.835C87.3464 298.199 87.8224 298.381 88.4104 298.381C88.8724 298.381 89.2644 298.283 89.5864 298.059C89.8944 297.835 90.1044 297.527 90.2164 297.121H91.7284C91.5884 297.849 91.2384 298.451 90.6644 298.913C90.0904 299.389 89.3764 299.613 88.5224 299.613C87.7664 299.613 87.1224 299.473 86.5624 299.165C86.0024 298.857 85.5824 298.437 85.2744 297.877C84.9664 297.331 84.8264 296.687 84.8264 295.959C84.8264 295.231 84.9664 294.587 85.2604 294.027ZM90.3144 295.161C90.2444 294.643 90.0344 294.237 89.6844 293.943C89.3344 293.649 88.9004 293.495 88.3684 293.495C87.8644 293.495 87.4444 293.649 87.0804 293.957C86.7164 294.265 86.5204 294.657 86.4644 295.161H90.3144ZM97.1388 292.361V293.775H96.4668C95.8368 293.775 95.3888 293.985 95.1088 294.391C94.8288 294.797 94.6888 295.315 94.6888 295.931V299.529H93.1768V292.361H94.5208L94.6888 293.439C94.8848 293.103 95.1508 292.851 95.4868 292.655C95.8088 292.459 96.2428 292.361 96.8028 292.361H97.1388ZM105.395 295.077C105.899 294.657 106.291 294.265 106.543 293.901C106.795 293.537 106.935 293.145 106.935 292.711C106.935 292.165 106.767 291.731 106.431 291.423C106.095 291.115 105.633 290.961 105.059 290.961C104.499 290.961 104.037 291.143 103.701 291.507C103.365 291.871 103.197 292.347 103.197 292.935V293.117H101.643V292.851C101.643 292.235 101.783 291.689 102.063 291.199C102.343 290.723 102.749 290.331 103.267 290.051C103.771 289.771 104.373 289.631 105.059 289.631C106.151 289.631 106.991 289.911 107.607 290.457C108.209 291.003 108.517 291.731 108.517 292.641C108.517 293.313 108.335 293.887 107.999 294.391C107.649 294.895 107.131 295.427 106.445 296.001L103.841 298.171H108.573V299.529H101.629V298.283L105.395 295.077ZM109.811 294.405C109.811 293.481 109.965 292.655 110.287 291.927C110.609 291.199 111.071 290.639 111.659 290.247C112.247 289.855 112.919 289.645 113.675 289.645C114.417 289.645 115.075 289.855 115.663 290.247C116.251 290.639 116.699 291.199 117.035 291.927C117.357 292.655 117.525 293.481 117.525 294.405V294.853C117.525 295.833 117.357 296.673 117.035 297.387C116.713 298.115 116.265 298.661 115.677 299.039C115.089 299.431 114.431 299.613 113.675 299.613C112.905 299.613 112.233 299.431 111.645 299.039C111.057 298.661 110.609 298.115 110.287 297.387C109.965 296.673 109.811 295.833 109.811 294.853V294.405ZM115.341 291.927C114.921 291.311 114.375 291.003 113.675 291.003C112.975 291.003 112.415 291.311 111.995 291.927C111.575 292.543 111.365 293.383 111.365 294.461V294.797C111.365 295.889 111.575 296.729 111.995 297.345C112.415 297.961 112.975 298.255 113.675 298.255C114.375 298.255 114.921 297.961 115.341 297.345C115.761 296.729 115.971 295.889 115.971 294.797V294.461C115.971 293.383 115.761 292.543 115.341 291.927ZM122.466 295.077C122.97 294.657 123.362 294.265 123.614 293.901C123.866 293.537 124.006 293.145 124.006 292.711C124.006 292.165 123.838 291.731 123.502 291.423C123.166 291.115 122.704 290.961 122.13 290.961C121.57 290.961 121.108 291.143 120.772 291.507C120.436 291.871 120.268 292.347 120.268 292.935V293.117H118.714V292.851C118.714 292.235 118.854 291.689 119.134 291.199C119.414 290.723 119.82 290.331 120.338 290.051C120.842 289.771 121.444 289.631 122.13 289.631C123.222 289.631 124.062 289.911 124.678 290.457C125.28 291.003 125.588 291.731 125.588 292.641C125.588 293.313 125.406 293.887 125.07 294.391C124.72 294.895 124.202 295.427 123.516 296.001L120.912 298.171H125.644V299.529H118.7V298.283L122.466 295.077ZM126.424 295.945L131.086 289.729H132.962V295.917H134.446V297.261H132.962V299.529H131.436V297.261H126.424V295.945ZM127.978 295.917H131.436V291.325L127.978 295.917Z" fill="#49454F"/>
<path d="M148.25 292.029L152 295.779L155.75 292.029H148.25Z" fill="#49454F"/>
<g clip-path="url(#clip1_1500_2144)">
<path d="M220.705 288.939L219.295 287.529L213.295 293.529L219.295 299.529L220.705 298.119L216.125 293.529L220.705 288.939Z" fill="#49454F"/>
</g>
<g clip-path="url(#clip2_1500_2144)">
<path d="M262.705 287.529L261.295 288.939L265.875 293.529L261.295 298.119L262.705 299.529L268.705 293.529L262.705 287.529Z" fill="#49454F"/>
</g>
<g clip-path="url(#clip3_1500_2144)">
<rect width="69" height="40" transform="translate(153 329.529)" fill="#EFF500"/>
<path d="M166.2 348.025C166.592 347.269 167.138 346.695 167.852 346.275C168.566 345.855 169.406 345.645 170.358 345.645C171.086 345.645 171.758 345.785 172.346 346.065C172.934 346.345 173.424 346.751 173.802 347.269C174.166 347.787 174.404 348.389 174.516 349.061H172.906C172.738 348.445 172.43 347.955 171.982 347.591C171.52 347.241 170.96 347.059 170.288 347.059C169.672 347.059 169.14 347.213 168.692 347.521C168.23 347.829 167.88 348.249 167.642 348.781C167.39 349.313 167.278 349.929 167.278 350.629C167.278 351.329 167.39 351.945 167.642 352.477C167.88 353.023 168.23 353.443 168.692 353.751C169.14 354.059 169.672 354.199 170.288 354.199C170.96 354.199 171.52 354.031 171.968 353.667C172.416 353.317 172.724 352.827 172.892 352.197H174.502C174.39 352.897 174.152 353.499 173.788 354.003C173.424 354.521 172.948 354.913 172.36 355.193C171.772 355.473 171.1 355.613 170.358 355.613C169.406 355.613 168.566 355.417 167.852 354.997C167.138 354.591 166.592 354.017 166.2 353.261C165.808 352.505 165.626 351.637 165.626 350.629C165.626 349.649 165.808 348.781 166.2 348.025ZM182.695 354.213V355.529H181.897C181.421 355.529 181.085 355.431 180.889 355.235C180.679 355.039 180.581 354.759 180.581 354.381C180.035 355.207 179.251 355.613 178.215 355.613C177.403 355.613 176.759 355.431 176.283 355.053C175.793 354.689 175.555 354.171 175.555 353.513C175.555 352.785 175.807 352.211 176.339 351.819C176.857 351.427 177.613 351.217 178.621 351.217H180.427V350.783C180.427 350.391 180.287 350.069 180.007 349.845C179.727 349.621 179.335 349.495 178.845 349.495C178.397 349.495 178.033 349.593 177.753 349.789C177.473 349.985 177.305 350.237 177.249 350.545H175.765C175.835 349.831 176.157 349.271 176.717 348.879C177.277 348.487 178.005 348.277 178.915 348.277C179.867 348.277 180.609 348.501 181.141 348.949C181.659 349.397 181.925 350.041 181.925 350.881V353.709C181.925 354.045 182.079 354.213 182.401 354.213H182.695ZM180.427 352.337H178.551C178.075 352.337 177.725 352.435 177.473 352.617C177.221 352.799 177.095 353.065 177.095 353.415C177.095 353.723 177.207 353.975 177.445 354.157C177.683 354.353 178.005 354.437 178.425 354.437C179.041 354.437 179.531 354.269 179.881 353.933C180.231 353.597 180.413 353.149 180.427 352.589V352.337ZM189.471 349.061C190.003 349.593 190.283 350.433 190.283 351.581V355.529H188.757V351.665C188.757 350.993 188.603 350.475 188.323 350.111C188.029 349.761 187.609 349.579 187.049 349.579C186.447 349.579 185.971 349.789 185.635 350.209C185.299 350.629 185.131 351.189 185.131 351.917V355.529H183.619V348.361H184.935L185.103 349.299C185.635 348.627 186.405 348.277 187.399 348.277C188.239 348.277 188.939 348.543 189.471 349.061ZM197.288 354.913C196.7 355.389 195.958 355.613 195.062 355.613C194.348 355.613 193.718 355.473 193.186 355.165C192.64 354.857 192.22 354.423 191.926 353.863C191.632 353.303 191.492 352.659 191.492 351.931C191.492 351.203 191.632 350.573 191.94 350.013C192.234 349.467 192.654 349.047 193.2 348.739C193.746 348.431 194.376 348.277 195.104 348.277C196 348.277 196.728 348.515 197.302 348.991C197.862 349.467 198.226 350.097 198.366 350.909H196.812C196.7 350.503 196.504 350.181 196.196 349.929C195.888 349.691 195.51 349.565 195.062 349.565C194.446 349.565 193.956 349.789 193.592 350.223C193.228 350.671 193.046 351.231 193.046 351.931C193.046 352.645 193.228 353.219 193.592 353.667C193.956 354.115 194.446 354.325 195.062 354.325C195.524 354.325 195.916 354.213 196.224 353.961C196.532 353.709 196.728 353.373 196.826 352.953H198.366C198.226 353.793 197.862 354.437 197.288 354.913ZM199.723 350.027C200.017 349.467 200.423 349.047 200.955 348.739C201.487 348.431 202.089 348.277 202.775 348.277C203.461 348.277 204.063 348.417 204.595 348.697C205.127 348.977 205.533 349.383 205.841 349.887C206.149 350.405 206.303 351.007 206.317 351.693C206.317 351.889 206.303 352.071 206.275 352.267H200.871V352.351C200.899 352.981 201.095 353.471 201.459 353.835C201.809 354.199 202.285 354.381 202.873 354.381C203.335 354.381 203.727 354.283 204.049 354.059C204.357 353.835 204.567 353.527 204.679 353.121H206.191C206.051 353.849 205.701 354.451 205.127 354.913C204.553 355.389 203.839 355.613 202.985 355.613C202.229 355.613 201.585 355.473 201.025 355.165C200.465 354.857 200.045 354.437 199.737 353.877C199.429 353.331 199.289 352.687 199.289 351.959C199.289 351.231 199.429 350.587 199.723 350.027ZM204.777 351.161C204.707 350.643 204.497 350.237 204.147 349.943C203.797 349.649 203.363 349.495 202.831 349.495C202.327 349.495 201.907 349.649 201.543 349.957C201.179 350.265 200.983 350.657 200.927 351.161H204.777ZM207.639 345.729H209.151V355.529H207.639V345.729Z" fill="#002324"/>
</g>
<g clip-path="url(#clip4_1500_2144)">
<rect x="230" y="329.529" width="44" height="40" rx="8" fill="#002324"/>
<path d="M251.501 353.191C251.095 353.947 250.535 354.549 249.807 354.969C249.079 355.403 248.267 355.613 247.343 355.613C246.419 355.613 245.593 355.403 244.865 354.969C244.137 354.549 243.577 353.947 243.185 353.191C242.779 352.435 242.583 351.581 242.583 350.629C242.583 349.677 242.779 348.823 243.185 348.067C243.577 347.311 244.137 346.723 244.865 346.289C245.593 345.869 246.419 345.645 247.343 345.645C248.267 345.645 249.079 345.869 249.807 346.289C250.535 346.723 251.095 347.311 251.501 348.067C251.893 348.823 252.103 349.677 252.103 350.629C252.103 351.581 251.893 352.435 251.501 353.191ZM244.627 352.477C244.879 353.023 245.243 353.443 245.719 353.751C246.195 354.059 246.727 354.199 247.343 354.199C247.945 354.199 248.477 354.059 248.953 353.751C249.429 353.443 249.793 353.023 250.059 352.477C250.311 351.931 250.451 351.315 250.451 350.629C250.451 349.957 250.311 349.341 250.059 348.795C249.793 348.249 249.429 347.829 248.953 347.521C248.477 347.213 247.945 347.059 247.343 347.059C246.727 347.059 246.195 347.213 245.719 347.521C245.243 347.829 244.879 348.249 244.627 348.795C244.361 349.341 244.235 349.957 244.235 350.629C244.235 351.315 244.361 351.931 244.627 352.477ZM253.616 345.729H255.226V350.783L259.72 345.729H261.68L258.082 349.817L261.946 355.529H260L256.934 351.049L255.226 352.967V355.529H253.616V345.729Z" fill="#EFF500"/>
</g>
</g>
</g>
<defs>
<filter id="filter0_b_1500_2144" x="-34" y="-34" width="377" height="475" filterUnits="userSpaceOnUse" color-interpolation-filters="sRGB">
<feFlood flood-opacity="0" result="BackgroundImageFix"/>
<feGaussianBlur in="BackgroundImageFix" stdDeviation="17"/>
<feComposite in2="SourceAlpha" operator="in" result="effect1_backgroundBlur_1500_2144"/>
<feBlend mode="normal" in="SourceGraphic" in2="effect1_backgroundBlur_1500_2144" result="shape"/>
</filter>
<clipPath id="clip0_1500_2144">
<rect x="20" y="154.529" width="266" height="229" rx="10" fill="white"/>
</clipPath>
<clipPath id="clip1_1500_2144">
<rect x="197" y="273.529" width="40" height="40" rx="20" fill="white"/>
</clipPath>
<clipPath id="clip2_1500_2144">
<rect x="245" y="273.529" width="40" height="40" rx="20" fill="white"/>
</clipPath>
<clipPath id="clip3_1500_2144">
<rect x="153" y="329.529" width="69" height="40" rx="8" fill="white"/>
</clipPath>
<clipPath id="clip4_1500_2144">
<rect x="230" y="329.529" width="44" height="40" rx="8" fill="white"/>
</clipPath>
</defs>
</svg>
