<svg width="32" height="32" viewBox="0 0 32 32" fill="none" xmlns="http://www.w3.org/2000/svg">
<path fill-rule="evenodd" clip-rule="evenodd" d="M10.9999 7.00001H8.74587C7.24587 7.00001 5.97587 8.10801 5.77287 9.59501C5.31487 12.952 4.29287 20.449 3.62787 25.324C3.43287 26.755 3.86587 28.2 4.81587 29.288C5.76487 30.376 7.13887 31 8.58187 31H23.4129C24.8569 31 26.2299 30.376 27.1799 29.288C28.1289 28.2 28.5619 26.755 28.3669 25.324L26.2219 9.59501C26.0189 8.10801 24.7499 7.00001 23.2499 7.00001H20.9999V6.01001C20.9999 3.24901 18.7609 1.01001 15.9999 1.01001C14.6739 1.01001 13.4019 1.53701 12.4639 2.47401C11.5269 3.41201 10.9999 4.68401 10.9999 6.01001V7.00001ZM20.9999 9.00001V11.01C20.9999 11.562 20.5519 12.01 19.9999 12.01C19.4479 12.01 18.9999 11.562 18.9999 11.01V9.00001H12.9999V11.01C12.9999 11.562 12.5519 12.01 11.9999 12.01C11.4479 12.01 10.9999 11.562 10.9999 11.01V9.00001H8.74587C8.24587 9.00001 7.82287 9.36901 7.75487 9.86501C7.29687 13.222 6.27487 20.719 5.60987 25.595C5.49287 26.453 5.75287 27.32 6.32187 27.973C6.89187 28.625 7.71587 29 8.58187 29H23.4129C24.2789 29 25.1029 28.625 25.6729 27.973C26.2429 27.32 26.5029 26.453 26.3849 25.595L24.2409 9.86501C24.1729 9.36901 23.7499 9.00001 23.2499 9.00001H20.9999ZM18.9999 7.00001V6.01001C18.9999 4.35301 17.6569 3.01001 15.9999 3.01001C15.2039 3.01001 14.4409 3.32601 13.8789 3.88901C13.3159 4.45101 12.9999 5.21401 12.9999 6.01001V7.00001H18.9999Z" fill="white"/>
</svg>
